<svg id="svg" version="1.1" xmlns="http://www.w3.org/2000/svg" xmlns:xlink="http://www.w3.org/1999/xlink" width="400" height="400" viewBox="0, 0, 400,400"><g id="svgg"><path id="path0" d="M296.900 30.225 C 295.525 31.657,294.400 32.970,294.400 33.144 C 294.400 33.318,293.950 33.883,293.400 34.400 C 292.850 34.917,292.400 35.578,292.400 35.870 C 292.400 36.169,291.964 36.400,291.400 36.400 C 290.850 36.400,290.400 36.220,290.400 36.000 C 290.400 35.780,290.130 35.600,289.800 35.600 C 289.470 35.600,289.200 35.414,289.200 35.187 C 289.200 34.961,288.889 34.656,288.509 34.510 C 288.129 34.364,287.433 33.829,286.963 33.322 C 286.493 32.815,285.893 32.400,285.631 32.400 C 285.368 32.400,285.264 32.220,285.400 32.000 C 285.540 31.773,285.204 31.600,284.624 31.600 C 284.061 31.600,283.600 31.425,283.600 31.210 C 283.600 30.574,281.224 29.538,280.380 29.806 C 279.706 30.020,279.600 30.429,279.600 32.803 C 279.600 34.316,279.420 35.664,279.200 35.800 C 278.689 36.116,278.671 44.110,279.179 44.620 C 279.388 44.829,279.590 46.949,279.628 49.331 C 279.680 52.595,279.833 53.714,280.248 53.874 C 280.637 54.023,280.800 54.835,280.800 56.619 C 280.800 58.013,280.980 59.264,281.200 59.400 C 281.420 59.536,281.600 60.542,281.600 61.636 C 281.600 63.035,281.778 63.693,282.200 63.855 C 282.606 64.011,282.800 64.647,282.800 65.819 C 282.800 66.773,282.980 67.664,283.200 67.800 C 283.420 67.936,283.600 68.667,283.600 69.424 C 283.600 70.181,283.780 70.800,284.000 70.800 C 284.220 70.800,284.400 71.421,284.400 72.180 C 284.400 72.939,284.647 73.704,284.950 73.880 C 285.252 74.056,285.604 74.830,285.731 75.600 C 286.262 78.817,286.519 79.600,287.045 79.600 C 287.411 79.600,287.600 80.070,287.600 80.976 C 287.600 81.733,287.780 82.464,288.000 82.600 C 288.220 82.736,288.400 83.377,288.400 84.024 C 288.400 84.671,288.580 85.200,288.800 85.200 C 289.020 85.200,289.201 85.515,289.202 85.900 C 289.204 86.285,289.474 87.116,289.802 87.746 C 290.131 88.376,290.400 89.231,290.400 89.646 C 290.400 90.061,290.580 90.400,290.800 90.400 C 291.020 90.400,291.200 90.837,291.200 91.371 C 291.200 91.906,291.470 92.613,291.800 92.943 C 292.130 93.273,292.400 93.995,292.400 94.548 C 292.400 95.101,292.580 95.664,292.800 95.800 C 293.020 95.936,293.200 96.402,293.200 96.836 C 293.200 97.270,293.470 97.729,293.800 97.855 C 294.170 97.997,294.400 98.605,294.400 99.443 C 294.400 100.189,294.580 100.800,294.800 100.800 C 295.020 100.800,295.200 101.329,295.200 101.976 C 295.200 102.623,295.380 103.264,295.600 103.400 C 295.820 103.536,296.000 104.002,296.000 104.436 C 296.000 104.870,296.270 105.329,296.600 105.455 C 296.991 105.605,297.200 106.228,297.200 107.243 C 297.200 108.099,297.380 108.800,297.600 108.800 C 297.820 108.800,298.000 109.430,298.000 110.200 C 298.000 111.178,298.181 111.600,298.600 111.600 C 299.019 111.600,299.200 112.022,299.200 113.000 C 299.200 113.770,299.380 114.400,299.600 114.400 C 299.820 114.400,300.000 115.017,300.000 115.771 C 300.000 116.526,300.225 117.381,300.500 117.671 C 300.775 117.962,301.031 118.825,301.069 119.590 C 301.107 120.354,301.332 121.044,301.569 121.123 C 301.811 121.204,302.000 122.287,302.000 123.600 C 302.000 124.883,302.159 125.993,302.353 126.067 C 302.741 126.213,303.037 134.251,302.892 140.724 C 302.841 142.992,302.649 144.754,302.465 144.640 C 302.281 144.526,302.091 145.529,302.042 146.868 C 301.989 148.352,301.729 149.528,301.377 149.880 C 301.060 150.197,300.800 150.807,300.800 151.234 C 300.800 151.661,300.635 152.323,300.433 152.705 C 300.232 153.087,299.850 153.985,299.585 154.700 C 299.320 155.415,298.855 156.000,298.551 156.000 C 298.248 156.000,298.000 156.270,298.000 156.600 C 298.000 156.933,297.644 157.200,297.200 157.200 C 296.760 157.200,296.400 157.380,296.400 157.600 C 296.400 157.820,295.770 158.000,295.000 158.000 C 294.230 158.000,293.600 158.180,293.600 158.400 C 293.600 158.620,292.893 158.800,292.029 158.800 C 291.164 158.800,290.187 159.070,289.857 159.400 C 289.423 159.834,288.365 160.000,286.029 160.000 C 284.143 160.000,282.800 160.166,282.800 160.400 C 282.800 160.944,265.336 160.944,265.000 160.400 C 264.864 160.180,263.401 160.000,261.748 160.000 C 259.797 160.000,258.558 159.815,258.216 159.474 C 257.927 159.184,256.725 158.904,255.545 158.851 C 254.365 158.799,253.340 158.586,253.267 158.378 C 253.193 158.170,252.158 158.000,250.967 158.000 C 249.775 158.000,248.800 157.820,248.800 157.600 C 248.800 157.380,247.919 157.200,246.843 157.200 C 245.472 157.200,244.817 157.020,244.655 156.600 C 244.504 156.206,243.880 156.000,242.836 156.000 C 241.962 156.000,241.136 155.820,241.000 155.600 C 240.864 155.380,239.998 155.194,239.076 155.187 C 238.154 155.180,237.051 154.910,236.624 154.587 C 236.196 154.264,235.082 154.000,234.147 154.000 C 233.212 154.000,232.336 153.820,232.200 153.600 C 232.064 153.380,230.988 153.200,229.810 153.200 C 228.535 153.200,227.604 153.011,227.511 152.734 C 227.421 152.463,226.198 152.199,224.578 152.101 C 223.050 152.009,221.629 151.769,221.420 151.567 C 220.923 151.087,188.685 151.081,188.180 151.561 C 187.971 151.759,186.373 151.989,184.630 152.072 C 182.605 152.168,181.400 152.399,181.296 152.711 C 181.189 153.033,180.197 153.200,178.400 153.200 C 176.897 153.200,175.607 153.370,175.533 153.578 C 175.460 153.785,174.382 153.995,173.138 154.045 C 171.443 154.111,170.928 154.267,171.081 154.667 C 171.235 155.068,170.784 155.200,169.266 155.200 C 168.156 155.200,167.136 155.380,167.000 155.600 C 166.864 155.820,166.218 156.000,165.564 156.000 C 164.876 156.000,164.278 156.253,164.145 156.600 C 164.004 156.967,163.397 157.200,162.581 157.200 C 161.847 157.200,161.136 157.380,161.000 157.600 C 160.864 157.820,160.133 158.000,159.376 158.000 C 158.619 158.000,158.000 158.180,158.000 158.400 C 158.000 158.620,157.449 158.800,156.776 158.800 C 156.053 158.800,155.655 158.965,155.803 159.205 C 155.942 159.430,155.505 159.719,154.818 159.856 C 154.139 159.992,153.486 160.260,153.368 160.452 C 153.250 160.643,152.823 160.800,152.419 160.800 C 152.016 160.800,151.582 161.070,151.455 161.400 C 151.329 161.730,150.769 162.000,150.213 162.000 C 149.656 162.000,149.200 162.180,149.200 162.400 C 149.200 162.620,148.827 162.800,148.371 162.800 C 147.916 162.800,147.292 163.025,146.985 163.300 C 145.650 164.498,145.207 164.800,144.788 164.800 C 144.543 164.800,144.071 165.072,143.739 165.404 C 143.407 165.736,142.942 165.888,142.706 165.742 C 142.458 165.589,142.392 165.663,142.549 165.918 C 142.848 166.401,141.462 167.328,141.053 166.919 C 140.914 166.780,140.800 166.877,140.800 167.133 C 140.800 167.390,140.530 167.600,140.200 167.600 C 139.870 167.600,139.596 167.825,139.591 168.100 C 139.586 168.375,139.001 168.886,138.291 169.236 C 137.581 169.586,136.936 170.203,136.857 170.608 C 136.778 171.012,136.463 171.594,136.157 171.900 C 135.851 172.207,135.600 172.794,135.600 173.205 C 135.600 173.616,135.420 174.064,135.200 174.200 C 134.980 174.336,134.800 174.887,134.800 175.424 C 134.800 175.961,134.620 176.400,134.400 176.400 C 134.180 176.400,134.000 176.831,134.000 177.357 C 134.000 177.884,133.730 178.418,133.400 178.545 C 133.070 178.671,132.800 179.141,132.800 179.587 C 132.800 180.034,132.620 180.400,132.400 180.400 C 132.180 180.400,132.000 180.643,132.000 180.940 C 132.000 181.238,131.550 182.327,131.000 183.362 C 130.450 184.396,130.000 185.503,130.000 185.821 C 130.000 186.140,129.820 186.400,129.600 186.400 C 129.380 186.400,129.200 186.856,129.200 187.413 C 129.200 187.969,128.930 188.529,128.600 188.655 C 128.270 188.782,128.000 189.316,128.000 189.843 C 128.000 190.369,127.820 190.800,127.600 190.800 C 127.380 190.800,127.200 191.231,127.200 191.757 C 127.200 192.284,126.930 192.818,126.600 192.945 C 126.270 193.071,126.000 193.541,126.000 193.987 C 126.000 194.434,125.820 194.800,125.600 194.800 C 125.380 194.800,125.200 195.250,125.200 195.800 C 125.200 196.350,125.019 196.800,124.799 196.800 C 124.578 196.800,124.086 197.520,123.704 198.400 C 123.323 199.280,122.874 200.000,122.706 200.000 C 122.538 200.000,122.400 200.360,122.400 200.800 C 122.400 201.240,122.223 201.600,122.008 201.600 C 121.792 201.600,121.502 202.050,121.364 202.600 C 121.226 203.150,120.953 203.600,120.757 203.600 C 120.560 203.600,120.400 203.810,120.400 204.066 C 120.400 204.812,119.077 207.600,118.723 207.600 C 118.545 207.600,118.400 207.960,118.400 208.400 C 118.400 208.840,118.220 209.200,118.000 209.200 C 117.780 209.200,117.600 209.451,117.600 209.757 C 117.600 210.064,117.330 210.418,117.000 210.545 C 116.670 210.671,116.400 211.141,116.400 211.587 C 116.400 212.034,116.220 212.400,116.000 212.400 C 115.780 212.400,115.600 212.738,115.600 213.151 C 115.600 213.564,115.330 214.126,115.000 214.400 C 114.670 214.674,114.400 215.146,114.400 215.449 C 114.400 215.752,114.239 216.000,114.042 216.000 C 113.845 216.000,113.305 216.765,112.842 217.700 C 112.379 218.635,111.994 219.220,111.986 219.000 C 111.978 218.780,111.612 219.365,111.174 220.300 C 110.735 221.235,110.202 222.000,109.988 222.000 C 109.775 222.000,109.600 222.360,109.600 222.800 C 109.600 223.240,109.420 223.600,109.200 223.600 C 108.980 223.600,108.800 223.870,108.800 224.200 C 108.800 224.530,108.661 224.800,108.491 224.800 C 108.321 224.800,107.843 225.430,107.428 226.200 C 107.013 226.970,106.522 227.600,106.337 227.600 C 106.152 227.600,105.997 227.915,105.993 228.300 C 105.989 228.685,105.539 229.424,104.993 229.942 C 104.447 230.460,104.000 231.045,104.000 231.242 C 104.000 231.439,103.719 231.600,103.376 231.600 C 103.033 231.600,102.855 231.765,102.980 231.968 C 103.105 232.170,102.936 232.607,102.604 232.939 C 102.272 233.271,102.000 233.736,102.000 233.971 C 102.000 234.207,101.820 234.400,101.600 234.400 C 101.380 234.400,101.200 234.676,101.200 235.013 C 101.200 235.349,100.930 235.729,100.600 235.855 C 100.270 235.982,100.000 236.255,100.000 236.463 C 100.000 236.670,99.370 237.488,98.600 238.281 C 97.830 239.074,97.200 239.867,97.200 240.043 C 97.200 240.219,96.750 240.814,96.200 241.364 C 95.650 241.914,95.200 242.486,95.200 242.635 C 95.200 242.981,93.100 244.799,92.700 244.800 C 92.535 244.800,92.400 244.980,92.400 245.200 C 92.400 245.420,91.680 246.320,90.800 247.200 C 89.920 248.080,89.020 248.800,88.800 248.800 C 88.580 248.800,88.400 249.081,88.400 249.424 C 88.400 249.767,88.220 249.936,88.000 249.800 C 87.780 249.664,87.600 249.737,87.600 249.963 C 87.600 250.464,85.362 252.800,84.881 252.800 C 84.691 252.800,84.298 253.244,84.007 253.786 C 83.717 254.329,83.327 254.678,83.140 254.563 C 82.953 254.447,82.800 254.633,82.800 254.976 C 82.800 255.319,82.530 255.600,82.200 255.600 C 81.870 255.600,81.267 255.915,80.860 256.300 C 79.747 257.353,78.580 258.266,77.326 259.064 C 76.707 259.459,76.110 259.876,76.000 259.991 C 75.890 260.107,75.260 260.471,74.600 260.800 C 73.940 261.129,73.256 261.624,73.080 261.899 C 72.904 262.175,72.409 262.400,71.980 262.400 C 71.551 262.400,71.200 262.559,71.200 262.753 C 71.200 262.948,70.885 263.212,70.500 263.342 C 70.115 263.471,69.530 263.734,69.200 263.926 C 67.715 264.791,66.769 265.200,66.254 265.200 C 65.948 265.200,65.474 265.470,65.200 265.800 C 64.926 266.130,64.285 266.400,63.775 266.400 C 63.265 266.400,62.736 266.580,62.600 266.800 C 62.464 267.020,61.834 267.200,61.200 267.200 C 60.566 267.200,59.936 267.380,59.800 267.600 C 59.664 267.820,58.953 268.000,58.219 268.000 C 57.440 268.000,56.796 268.235,56.669 268.565 C 56.330 269.447,43.464 270.424,42.668 269.628 C 42.432 269.392,41.556 269.200,40.720 269.200 C 39.610 269.200,39.200 269.032,39.200 268.576 C 39.200 268.233,39.052 268.044,38.871 268.156 C 38.691 268.268,38.040 268.098,37.426 267.780 C 36.811 267.461,36.149 267.200,35.954 267.200 C 35.370 267.200,32.400 264.045,32.400 263.424 C 32.400 263.107,32.220 262.736,32.000 262.600 C 31.479 262.278,31.479 257.722,32.000 257.400 C 32.220 257.264,32.400 256.803,32.400 256.376 C 32.400 255.949,32.580 255.600,32.800 255.600 C 33.020 255.600,33.200 255.395,33.200 255.144 C 33.200 254.396,34.516 253.626,35.820 253.613 C 37.318 253.597,39.193 254.423,39.197 255.100 C 39.199 255.375,39.207 255.683,39.215 255.785 C 39.347 257.363,43.019 258.910,44.236 257.900 C 45.905 256.515,46.800 255.511,46.800 255.025 C 46.800 254.728,47.070 254.382,47.400 254.255 C 47.794 254.104,48.000 253.480,48.000 252.436 C 48.000 251.562,48.180 250.736,48.400 250.600 C 48.895 250.294,48.934 246.517,48.444 246.333 C 48.249 246.260,47.998 245.396,47.887 244.414 C 47.776 243.432,47.486 242.562,47.243 242.481 C 46.999 242.400,46.800 242.093,46.800 241.800 C 46.800 241.507,46.612 241.204,46.382 241.127 C 46.152 241.051,45.934 240.586,45.897 240.094 C 45.860 239.602,45.676 239.200,45.488 239.200 C 45.300 239.200,44.573 238.592,43.871 237.848 C 43.170 237.105,42.237 236.419,41.798 236.325 C 41.359 236.230,41.045 235.938,41.100 235.676 C 41.156 235.408,40.763 235.200,40.200 235.200 C 39.650 235.200,39.200 235.020,39.200 234.800 C 39.200 234.580,38.660 234.400,38.000 234.400 C 37.235 234.400,36.800 234.196,36.800 233.837 C 36.800 233.383,35.932 233.286,32.300 233.337 C 28.940 233.384,27.825 233.527,27.900 233.900 C 27.969 234.247,27.387 234.400,26.000 234.400 C 24.900 234.400,24.000 234.580,24.000 234.800 C 24.000 235.020,23.460 235.200,22.800 235.200 C 22.140 235.200,21.600 235.391,21.600 235.624 C 21.600 235.857,21.420 235.936,21.200 235.800 C 20.980 235.664,20.800 235.743,20.800 235.976 C 20.800 236.209,20.440 236.400,20.000 236.400 C 19.560 236.400,19.200 236.580,19.200 236.800 C 19.200 237.020,18.949 237.200,18.643 237.200 C 18.336 237.200,17.978 237.481,17.846 237.825 C 17.714 238.169,17.432 238.344,17.221 238.213 C 17.009 238.082,15.925 238.881,14.813 239.987 C 13.700 241.094,12.612 242.000,12.395 242.000 C 12.178 242.000,12.000 242.270,12.000 242.600 C 12.000 242.930,11.820 243.200,11.600 243.200 C 11.380 243.200,11.200 243.461,11.200 243.779 C 11.200 244.098,10.750 244.844,10.200 245.438 C 9.650 246.031,9.200 246.851,9.200 247.258 C 9.200 247.666,9.020 248.000,8.800 248.000 C 8.580 248.000,8.400 248.338,8.400 248.751 C 8.400 249.164,8.130 249.726,7.800 250.000 C 7.470 250.274,7.200 251.005,7.200 251.625 C 7.200 252.245,7.020 252.864,6.800 253.000 C 6.580 253.136,6.400 254.212,6.400 255.390 C 6.400 256.749,6.217 257.594,5.900 257.700 C 5.095 257.968,5.007 275.151,5.809 275.459 C 6.219 275.616,6.400 276.286,6.400 277.643 C 6.400 278.719,6.580 279.600,6.800 279.600 C 7.020 279.600,7.200 280.236,7.200 281.013 C 7.200 281.899,7.423 282.511,7.800 282.655 C 8.173 282.798,8.400 283.408,8.400 284.266 C 8.400 285.085,8.563 285.547,8.800 285.400 C 9.020 285.264,9.200 285.536,9.200 286.005 C 9.200 286.474,9.480 287.137,9.823 287.480 C 10.166 287.823,10.351 288.350,10.236 288.652 C 10.120 288.953,10.269 289.200,10.567 289.200 C 10.865 289.200,11.387 289.785,11.728 290.500 C 12.069 291.215,12.683 292.160,13.094 292.600 C 13.504 293.040,13.961 293.715,14.108 294.100 C 14.255 294.485,14.561 294.800,14.787 294.800 C 15.014 294.800,15.200 295.070,15.200 295.400 C 15.200 295.730,15.380 296.000,15.600 296.000 C 15.820 296.000,16.000 296.270,16.000 296.600 C 16.000 296.930,16.270 297.200,16.600 297.200 C 16.930 297.200,17.200 297.380,17.200 297.600 C 17.200 297.820,17.481 298.000,17.824 298.000 C 18.167 298.000,18.352 298.154,18.235 298.343 C 18.118 298.532,18.648 299.023,19.411 299.434 C 20.175 299.845,20.800 300.321,20.800 300.491 C 20.800 300.661,21.070 300.800,21.400 300.800 C 21.730 300.800,22.000 301.026,22.000 301.302 C 22.000 301.579,22.585 302.063,23.300 302.378 C 24.015 302.693,24.838 303.187,25.129 303.475 C 25.419 303.764,25.914 304.000,26.229 304.000 C 26.543 304.000,26.800 304.180,26.800 304.400 C 26.800 304.620,27.160 304.800,27.600 304.800 C 28.040 304.800,28.400 304.980,28.400 305.200 C 28.400 305.420,28.828 305.600,29.351 305.600 C 29.874 305.600,30.526 305.870,30.800 306.200 C 31.074 306.530,31.816 306.800,32.449 306.800 C 33.082 306.800,33.600 306.980,33.600 307.200 C 33.600 307.420,34.410 307.600,35.400 307.600 C 36.733 307.600,37.200 307.756,37.200 308.200 C 37.200 308.672,37.758 308.800,39.824 308.800 C 41.471 308.800,42.355 308.949,42.200 309.200 C 42.039 309.461,44.588 309.600,49.553 309.600 C 54.188 309.600,57.249 309.444,57.400 309.200 C 57.536 308.980,58.632 308.800,59.836 308.800 C 61.413 308.800,62.090 308.632,62.255 308.200 C 62.412 307.793,63.050 307.600,64.243 307.600 C 65.209 307.600,66.000 307.420,66.000 307.200 C 66.000 306.980,66.707 306.800,67.571 306.800 C 68.436 306.800,69.413 306.530,69.743 306.200 C 70.073 305.870,70.896 305.600,71.571 305.600 C 72.247 305.600,72.800 305.420,72.800 305.200 C 72.800 304.980,73.329 304.800,73.976 304.800 C 74.623 304.800,75.264 304.620,75.400 304.400 C 75.536 304.180,76.087 304.000,76.624 304.000 C 77.225 304.000,77.600 303.769,77.600 303.400 C 77.600 303.003,77.997 302.800,78.776 302.800 C 79.423 302.800,80.064 302.620,80.200 302.400 C 80.336 302.180,80.887 302.000,81.424 302.000 C 82.025 302.000,82.400 301.769,82.400 301.400 C 82.400 301.027,82.778 300.800,83.400 300.800 C 83.950 300.800,84.400 300.620,84.400 300.400 C 84.400 300.180,84.850 300.000,85.400 300.000 C 85.950 300.000,86.400 299.820,86.400 299.600 C 86.400 299.380,86.828 299.200,87.351 299.200 C 87.874 299.200,88.526 298.930,88.800 298.600 C 89.074 298.270,89.546 298.000,89.849 298.000 C 90.152 298.000,90.400 297.820,90.400 297.600 C 90.400 297.380,90.850 297.200,91.400 297.200 C 92.022 297.200,92.400 296.973,92.400 296.600 C 92.400 296.227,92.778 296.000,93.400 296.000 C 93.950 296.000,94.400 295.820,94.400 295.600 C 94.400 295.380,94.584 295.200,94.809 295.200 C 95.212 295.200,98.413 293.242,98.800 292.758 C 98.910 292.620,99.405 292.381,99.900 292.227 C 100.395 292.072,100.800 291.778,100.800 291.573 C 100.800 291.368,101.070 291.200,101.400 291.200 C 101.730 291.200,102.000 291.020,102.000 290.800 C 102.000 290.580,102.276 290.400,102.613 290.400 C 102.949 290.400,103.329 290.130,103.455 289.800 C 103.582 289.470,103.936 289.200,104.243 289.200 C 104.549 289.200,104.800 289.020,104.800 288.800 C 104.800 288.580,105.261 288.400,105.824 288.400 C 106.387 288.400,106.756 288.252,106.644 288.071 C 106.365 287.620,107.905 286.357,108.820 286.289 C 109.230 286.258,109.498 286.165,109.416 286.083 C 109.246 285.912,110.685 284.400,111.018 284.400 C 111.138 284.400,111.690 283.947,112.244 283.392 C 112.798 282.838,113.421 282.490,113.629 282.618 C 113.836 282.746,114.114 282.569,114.246 282.225 C 114.378 281.881,114.766 281.600,115.109 281.600 C 115.453 281.600,115.631 281.498,115.506 281.373 C 115.254 281.120,117.393 278.803,117.887 278.795 C 118.059 278.792,118.973 278.072,119.917 277.195 C 120.862 276.318,121.709 275.600,121.799 275.600 C 122.134 275.600,124.000 273.550,124.000 273.182 C 124.000 272.972,124.178 272.800,124.395 272.800 C 124.917 272.800,128.800 268.926,128.800 268.405 C 128.800 268.182,128.993 268.000,129.229 268.000 C 129.686 268.000,130.800 267.018,130.800 266.615 C 130.800 266.482,131.298 265.884,131.906 265.287 C 132.514 264.689,133.451 263.570,133.988 262.800 C 134.525 262.030,135.558 260.847,136.282 260.172 C 137.007 259.496,137.600 258.728,137.600 258.465 C 137.600 258.201,138.230 257.374,139.000 256.626 C 139.770 255.879,140.400 255.072,140.400 254.833 C 140.400 254.595,140.539 254.400,140.708 254.400 C 140.878 254.400,141.453 253.601,141.987 252.625 C 142.520 251.648,143.101 250.939,143.278 251.048 C 143.455 251.158,143.600 250.877,143.600 250.424 C 143.600 249.971,143.780 249.600,144.000 249.600 C 144.220 249.600,144.400 249.330,144.400 249.000 C 144.400 248.670,144.580 248.400,144.800 248.400 C 145.020 248.400,145.200 248.208,145.200 247.973 C 145.200 247.739,145.615 246.974,146.123 246.273 C 146.630 245.573,147.391 244.325,147.814 243.500 C 148.236 242.675,148.721 242.000,148.891 242.000 C 149.061 242.000,149.200 241.550,149.200 241.000 C 149.200 240.450,149.351 240.000,149.536 240.000 C 149.720 240.000,150.215 239.282,150.636 238.405 C 151.056 237.527,151.535 236.807,151.700 236.805 C 151.865 236.802,152.000 236.451,152.000 236.024 C 152.000 235.597,152.169 235.143,152.375 235.016 C 152.977 234.643,154.000 232.356,154.000 231.381 C 154.000 230.889,154.270 230.382,154.600 230.255 C 154.930 230.129,155.200 229.659,155.200 229.213 C 155.200 228.766,155.380 228.400,155.600 228.400 C 155.820 228.400,156.000 228.027,156.000 227.571 C 156.000 227.116,156.270 226.473,156.600 226.143 C 156.930 225.813,157.200 225.106,157.200 224.571 C 157.200 224.037,157.380 223.600,157.600 223.600 C 157.820 223.600,158.006 223.195,158.013 222.700 C 158.035 221.144,158.976 220.233,159.756 221.013 C 160.110 221.367,160.400 221.842,160.400 222.068 C 160.400 222.294,160.940 222.983,161.600 223.600 C 162.260 224.217,162.800 224.888,162.800 225.093 C 162.800 225.297,163.250 225.706,163.800 226.000 C 164.682 226.472,165.003 227.115,164.847 228.100 C 164.821 228.265,165.081 228.400,165.424 228.400 C 165.767 228.400,165.949 228.560,165.828 228.755 C 165.708 228.950,165.967 229.203,166.404 229.317 C 166.842 229.431,167.200 229.361,167.200 229.161 C 167.200 228.961,167.920 228.486,168.800 228.104 C 169.680 227.723,170.400 227.184,170.400 226.906 C 170.400 226.628,170.588 226.400,170.817 226.400 C 171.209 226.400,171.662 226.087,172.985 224.900 C 173.292 224.625,173.736 224.400,173.971 224.400 C 174.541 224.400,174.568 239.849,174.000 240.200 C 173.780 240.336,173.600 241.677,173.600 243.181 C 173.600 245.242,173.452 245.971,173.000 246.145 C 172.589 246.302,172.400 246.945,172.400 248.187 C 172.400 249.184,172.220 250.000,172.000 250.000 C 171.780 250.000,171.600 250.795,171.600 251.767 C 171.600 252.738,171.397 253.601,171.148 253.684 C 170.900 253.767,170.618 254.637,170.521 255.617 C 170.424 256.598,170.178 257.460,169.973 257.533 C 169.768 257.607,169.600 258.282,169.600 259.033 C 169.600 259.785,169.420 260.400,169.200 260.400 C 168.980 260.400,168.800 261.131,168.800 262.024 C 168.800 262.971,168.638 263.547,168.412 263.407 C 168.198 263.275,167.917 263.670,167.788 264.284 C 167.658 264.898,167.383 265.713,167.176 266.095 C 166.969 266.477,166.800 267.332,166.800 267.995 C 166.800 268.756,166.596 269.200,166.245 269.200 C 165.940 269.200,165.587 269.695,165.460 270.300 C 165.333 270.905,165.112 271.985,164.969 272.700 C 164.826 273.415,164.558 274.000,164.373 274.000 C 164.188 274.000,163.918 274.632,163.773 275.404 C 163.628 276.177,163.350 276.907,163.155 277.028 C 162.960 277.149,162.800 277.687,162.800 278.224 C 162.800 278.761,162.620 279.200,162.400 279.200 C 162.180 279.200,162.000 279.721,162.000 280.357 C 162.000 281.017,161.742 281.613,161.400 281.745 C 161.070 281.871,160.800 282.341,160.800 282.787 C 160.800 283.234,160.620 283.600,160.400 283.600 C 160.180 283.600,160.000 284.230,160.000 285.000 C 160.000 285.770,159.823 286.400,159.608 286.400 C 159.392 286.400,159.102 286.850,158.964 287.400 C 158.826 287.950,158.580 288.400,158.418 288.400 C 158.255 288.400,158.107 288.929,158.088 289.575 C 158.070 290.221,157.863 291.109,157.627 291.549 C 157.392 291.988,157.200 292.790,157.200 293.331 C 157.200 293.872,156.930 294.418,156.600 294.545 C 156.249 294.679,156.000 295.279,156.000 295.987 C 156.000 296.654,155.820 297.200,155.600 297.200 C 155.380 297.200,155.200 297.811,155.200 298.557 C 155.200 299.395,154.970 300.003,154.600 300.145 C 154.226 300.288,154.000 300.898,154.000 301.764 C 154.000 302.528,153.820 303.264,153.600 303.400 C 153.380 303.536,153.200 304.342,153.200 305.190 C 153.200 306.039,153.002 306.799,152.761 306.880 C 152.519 306.960,152.226 307.875,152.109 308.913 C 151.992 309.951,151.739 310.800,151.548 310.800 C 151.357 310.800,151.200 312.330,151.200 314.200 C 151.200 316.200,151.035 317.600,150.800 317.600 C 150.552 317.600,150.400 319.733,150.400 323.200 C 150.400 326.667,150.552 328.800,150.800 328.800 C 151.042 328.800,151.200 330.533,151.200 333.200 C 151.200 335.867,151.358 337.600,151.600 337.600 C 151.820 337.600,152.000 338.307,152.000 339.171 C 152.000 340.036,152.270 341.013,152.600 341.343 C 152.930 341.673,153.200 342.496,153.200 343.171 C 153.200 343.847,153.380 344.400,153.600 344.400 C 153.820 344.400,154.000 344.647,154.000 344.950 C 154.000 345.759,156.547 348.400,157.328 348.400 C 157.698 348.400,158.000 348.580,158.000 348.800 C 158.000 349.020,158.705 349.200,159.567 349.200 C 160.428 349.200,161.193 349.377,161.267 349.593 C 161.455 350.147,165.904 350.860,170.500 351.073 C 172.645 351.172,174.400 351.421,174.400 351.627 C 174.400 351.840,176.856 352.000,180.150 352.000 L 185.900 352.000 186.150 350.750 C 186.287 350.063,186.400 312.183,186.400 266.574 C 186.400 211.721,186.535 183.564,186.800 183.400 C 187.020 183.264,187.200 182.867,187.200 182.518 C 187.200 181.306,189.939 178.524,192.280 177.356 L 194.600 176.200 260.200 175.992 C 296.280 175.878,325.845 175.743,325.900 175.692 C 325.955 175.642,326.000 175.407,326.000 175.171 C 326.000 174.936,326.270 174.473,326.600 174.143 C 326.930 173.813,327.200 173.206,327.200 172.795 C 327.200 172.384,327.380 171.936,327.600 171.800 C 327.820 171.664,328.000 171.113,328.000 170.576 C 328.000 170.039,328.180 169.600,328.400 169.600 C 328.620 169.600,328.800 168.989,328.800 168.243 C 328.800 167.405,329.030 166.797,329.400 166.655 C 329.730 166.529,330.000 166.070,330.000 165.636 C 330.000 165.202,330.180 164.736,330.400 164.600 C 330.620 164.464,330.800 163.834,330.800 163.200 C 330.800 162.566,330.969 161.943,331.175 161.816 C 331.676 161.506,332.800 159.220,332.800 158.510 C 332.800 158.198,333.070 157.673,333.400 157.343 C 333.730 157.013,334.000 156.306,334.000 155.771 C 334.000 155.237,334.180 154.800,334.400 154.800 C 334.620 154.800,334.800 154.498,334.800 154.128 C 334.800 153.064,335.747 150.631,336.298 150.280 C 336.574 150.104,336.800 149.620,336.800 149.204 C 336.800 148.788,336.980 148.336,337.200 148.200 C 337.420 148.064,337.600 147.618,337.600 147.210 C 337.600 146.801,337.782 146.406,338.004 146.332 C 338.226 146.258,338.492 145.748,338.596 145.199 C 339.096 142.539,340.529 141.600,344.092 141.600 C 345.797 141.600,346.487 141.438,346.655 141.000 C 346.827 140.553,347.539 140.400,349.443 140.400 C 350.881 140.400,352.000 140.225,352.000 140.000 C 352.000 139.769,353.275 139.600,355.024 139.600 C 356.937 139.600,357.956 139.453,357.800 139.200 C 357.650 138.958,358.273 138.780,359.376 138.750 C 361.837 138.683,361.888 138.672,362.460 138.100 C 362.735 137.825,363.903 137.600,365.056 137.600 C 366.209 137.600,367.264 137.420,367.400 137.200 C 367.536 136.980,368.362 136.800,369.236 136.800 C 370.280 136.800,370.904 136.594,371.055 136.200 C 371.217 135.780,371.872 135.600,373.243 135.600 C 374.319 135.600,375.200 135.420,375.200 135.200 C 375.200 134.980,375.931 134.800,376.824 134.800 C 377.717 134.800,378.350 134.642,378.231 134.450 C 378.112 134.257,378.731 133.985,379.607 133.845 C 380.483 133.705,381.200 133.413,381.200 133.195 C 381.200 132.978,381.830 132.800,382.600 132.800 C 383.370 132.800,384.000 132.620,384.000 132.400 C 384.000 132.180,384.366 132.000,384.813 132.000 C 385.259 132.000,385.729 131.730,385.855 131.400 C 385.987 131.058,386.583 130.800,387.243 130.800 C 387.879 130.800,388.400 130.620,388.400 130.400 C 388.400 130.180,388.627 130.000,388.904 130.000 C 389.181 130.000,389.946 129.374,390.604 128.609 C 391.262 127.843,392.025 127.213,392.300 127.209 C 392.575 127.204,392.800 126.930,392.800 126.600 C 392.800 126.270,392.980 126.000,393.200 126.000 C 393.420 126.000,393.600 125.569,393.600 125.043 C 393.600 124.516,393.870 123.982,394.200 123.855 C 395.052 123.528,395.079 117.600,394.228 117.600 C 393.913 117.600,393.598 117.197,393.528 116.704 C 393.454 116.185,393.064 115.746,392.600 115.659 C 392.160 115.578,391.656 115.261,391.480 114.955 C 391.304 114.650,390.640 114.400,390.004 114.400 C 389.368 114.400,388.736 114.220,388.600 114.000 C 388.464 113.780,387.832 113.600,387.196 113.600 C 386.560 113.600,385.896 113.343,385.720 113.028 C 385.377 112.415,385.330 112.400,383.776 112.400 C 383.196 112.400,382.860 112.227,383.000 112.000 C 383.140 111.774,382.812 111.600,382.247 111.600 C 381.697 111.600,381.136 111.420,381.000 111.200 C 380.864 110.980,380.223 110.800,379.576 110.800 C 378.778 110.800,378.400 110.600,378.400 110.176 C 378.400 109.833,378.252 109.644,378.071 109.756 C 377.891 109.868,377.240 109.698,376.626 109.380 C 376.011 109.061,375.259 108.800,374.954 108.800 C 374.649 108.800,374.400 108.623,374.400 108.408 C 374.400 108.192,373.950 107.902,373.400 107.764 C 372.850 107.626,372.400 107.353,372.400 107.157 C 372.400 106.960,371.950 106.800,371.400 106.800 C 370.850 106.800,370.400 106.620,370.400 106.400 C 370.400 106.180,370.034 106.000,369.587 106.000 C 369.141 106.000,368.671 105.730,368.545 105.400 C 368.418 105.070,367.974 104.800,367.557 104.800 C 367.141 104.800,366.798 104.665,366.795 104.500 C 366.793 104.335,366.073 103.856,365.195 103.436 C 364.318 103.015,363.600 102.520,363.600 102.336 C 363.600 102.151,363.285 102.000,362.900 102.000 C 362.515 101.999,361.677 101.549,361.038 101.000 C 360.399 100.450,359.649 100.000,359.371 100.000 C 359.094 100.000,358.807 99.856,358.733 99.679 C 358.660 99.502,357.385 98.564,355.900 97.594 C 354.415 96.624,353.200 95.689,353.200 95.515 C 353.200 95.342,352.930 95.200,352.600 95.200 C 352.270 95.200,352.000 95.020,352.000 94.800 C 352.000 94.580,351.691 94.400,351.313 94.400 C 350.935 94.400,350.260 93.993,349.813 93.496 C 349.366 92.998,347.965 91.823,346.700 90.883 C 345.435 89.943,344.400 89.000,344.400 88.787 C 344.400 88.574,344.222 88.400,344.005 88.400 C 343.381 88.400,342.018 87.094,342.250 86.719 C 342.365 86.533,342.221 86.430,341.930 86.490 C 341.638 86.551,341.445 86.375,341.500 86.100 C 341.555 85.825,341.465 85.621,341.300 85.647 C 340.331 85.800,339.600 85.522,339.600 85.000 C 339.600 84.670,339.434 84.400,339.232 84.400 C 338.752 84.400,334.000 79.648,334.000 79.168 C 334.000 78.966,333.823 78.800,333.607 78.800 C 333.125 78.800,328.000 73.720,328.000 73.242 C 328.000 73.053,327.732 72.676,327.404 72.404 C 327.077 72.132,326.907 71.750,327.028 71.555 C 327.149 71.360,326.967 71.200,326.624 71.200 C 326.281 71.200,326.000 71.007,326.000 70.771 C 326.000 70.218,324.982 69.200,324.429 69.200 C 324.193 69.200,324.000 69.007,324.000 68.771 C 324.000 68.536,323.728 68.071,323.396 67.739 C 323.064 67.407,322.895 66.970,323.020 66.768 C 323.145 66.565,322.967 66.400,322.624 66.400 C 322.281 66.400,322.000 66.212,322.000 65.982 C 322.000 65.752,321.547 65.110,320.992 64.556 C 320.438 64.002,320.106 63.352,320.254 63.112 C 320.409 62.862,320.339 62.790,320.091 62.944 C 319.852 63.091,319.543 62.849,319.402 62.406 C 319.261 61.963,318.978 61.600,318.773 61.600 C 318.568 61.600,318.400 61.330,318.400 61.000 C 318.400 60.670,318.130 60.400,317.800 60.400 C 317.470 60.400,317.200 60.085,317.200 59.700 C 317.199 59.315,316.761 58.490,316.225 57.867 C 315.653 57.203,315.351 56.472,315.493 56.101 C 315.655 55.681,315.578 55.566,315.265 55.760 C 314.987 55.932,314.699 55.755,314.561 55.325 C 314.055 53.753,313.440 52.800,312.932 52.800 C 312.636 52.800,312.400 52.371,312.400 51.833 C 312.400 51.302,312.212 50.804,311.982 50.727 C 311.752 50.651,311.535 50.191,311.498 49.705 C 311.461 49.219,311.199 48.732,310.916 48.623 C 310.632 48.514,310.400 48.149,310.400 47.813 C 310.400 47.476,310.220 47.200,310.000 47.200 C 309.780 47.200,309.600 46.930,309.600 46.600 C 309.600 46.270,309.420 46.000,309.200 46.000 C 308.980 46.000,308.800 45.634,308.800 45.187 C 308.800 44.741,308.530 44.271,308.200 44.145 C 307.870 44.018,307.600 43.499,307.600 42.991 C 307.600 42.482,307.426 42.007,307.213 41.933 C 307.000 41.860,306.782 41.227,306.730 40.528 C 306.677 39.828,306.490 39.344,306.314 39.453 C 306.138 39.562,305.889 39.324,305.761 38.925 C 305.633 38.526,305.340 37.750,305.110 37.200 C 304.881 36.650,304.520 35.750,304.309 35.200 C 304.099 34.650,303.673 33.690,303.363 33.068 C 303.053 32.445,302.800 31.590,302.800 31.168 C 302.800 30.745,302.631 30.400,302.425 30.400 C 302.219 30.400,301.994 29.815,301.925 29.100 C 301.694 26.704,299.895 27.107,296.900 30.225 M321.791 182.300 C 316.150 194.391,309.929 206.742,308.689 208.310 C 308.467 208.590,308.388 208.922,308.514 209.047 C 308.639 209.172,309.014 208.763,309.348 208.137 C 309.682 207.512,310.412 206.190,310.972 205.200 C 311.531 204.210,314.072 199.170,316.618 194.000 C 319.164 188.830,321.417 184.287,321.624 183.905 C 321.831 183.523,322.000 182.998,322.000 182.737 C 322.000 182.476,322.298 181.934,322.662 181.531 C 323.026 181.129,323.137 180.800,322.908 180.800 C 322.679 180.800,322.176 181.475,321.791 182.300 M367.444 181.588 C 371.960 183.597,371.658 177.213,371.520 267.800 L 371.400 346.600 368.800 346.735 C 362.314 347.072,350.775 344.495,348.595 342.222 C 344.446 337.897,342.350 319.691,344.794 309.200 C 345.280 307.110,345.822 304.770,345.998 304.000 C 346.267 302.823,347.318 299.356,348.788 294.800 C 349.227 293.439,350.779 289.185,351.195 288.200 C 351.381 287.760,352.913 283.710,354.600 279.200 C 356.287 274.690,357.813 270.640,357.991 270.200 C 358.169 269.760,358.618 268.500,358.989 267.400 C 359.359 266.300,359.811 265.040,359.993 264.600 C 364.834 252.882,368.729 230.732,367.640 221.116 C 367.398 218.979,367.200 217.044,367.200 216.816 C 367.200 215.925,363.659 217.402,362.400 218.817 C 362.290 218.941,361.480 219.568,360.600 220.210 C 359.720 220.853,358.570 221.788,358.045 222.289 C 356.625 223.644,356.391 223.518,352.897 219.500 C 348.166 214.062,347.286 213.280,346.976 214.236 C 346.839 214.656,346.577 215.360,346.392 215.800 C 346.208 216.240,345.678 217.659,345.214 218.954 C 344.380 221.282,344.006 222.151,341.319 228.000 C 340.074 230.712,335.842 238.296,332.751 243.359 C 331.683 245.106,324.620 254.696,324.030 255.200 C 323.901 255.310,322.816 256.570,321.619 258.000 C 316.225 264.446,305.024 274.775,297.000 280.704 C 296.779 280.867,295.936 281.495,295.126 282.100 C 294.316 282.705,293.476 283.200,293.260 283.200 C 293.044 283.200,292.807 283.347,292.733 283.526 C 292.573 283.920,287.868 286.971,283.886 289.264 C 278.207 292.535,270.675 296.215,265.800 298.100 C 264.920 298.441,263.236 299.096,262.057 299.556 C 260.878 300.015,258.718 300.591,257.257 300.835 C 254.070 301.367,250.928 302.352,252.326 302.381 C 252.836 302.391,253.603 302.212,254.032 301.983 C 254.957 301.488,255.614 302.546,254.853 303.307 C 253.226 304.934,254.867 310.334,257.765 312.888 C 259.061 314.030,264.266 316.800,265.116 316.800 C 265.388 316.800,265.923 316.961,266.305 317.157 C 266.971 317.499,272.893 319.362,275.400 320.017 C 276.060 320.190,277.410 320.543,278.400 320.802 C 279.390 321.062,280.920 321.366,281.800 321.478 C 282.680 321.590,283.571 321.844,283.780 322.041 C 283.989 322.238,284.889 322.403,285.780 322.406 C 286.671 322.409,288.120 322.671,289.000 322.988 C 289.880 323.305,291.329 323.573,292.220 323.582 C 293.111 323.592,294.011 323.764,294.220 323.965 C 294.429 324.165,295.590 324.422,296.800 324.534 C 300.143 324.845,304.470 325.609,305.250 326.027 C 305.634 326.232,306.645 326.400,307.497 326.400 C 308.941 326.400,309.095 326.516,309.761 328.100 C 310.154 329.035,310.741 330.430,311.065 331.200 C 311.389 331.970,311.803 332.960,311.986 333.400 C 312.168 333.840,312.786 335.240,313.359 336.511 C 313.931 337.782,314.400 339.087,314.400 339.411 C 314.400 339.735,314.580 340.000,314.800 340.000 C 315.020 340.000,315.200 340.439,315.200 340.976 C 315.200 341.513,315.366 342.055,315.569 342.181 C 315.772 342.306,316.057 342.947,316.201 343.605 C 316.345 344.262,316.629 344.800,316.832 344.800 C 317.034 344.800,317.200 345.250,317.200 345.800 C 317.200 346.350,317.380 346.800,317.600 346.800 C 317.820 346.800,318.000 347.064,318.000 347.386 C 318.000 347.926,318.799 350.014,319.649 351.695 C 319.842 352.077,320.000 352.741,320.000 353.171 C 320.000 353.601,320.171 354.058,320.379 354.187 C 320.588 354.316,321.078 355.497,321.468 356.811 C 321.858 358.125,322.317 359.200,322.489 359.200 C 322.660 359.200,322.800 359.650,322.800 360.200 L 322.800 361.200 344.351 361.200 C 369.799 361.200,369.682 361.221,371.180 356.400 C 372.084 353.491,372.303 188.398,371.406 185.758 C 370.403 182.803,368.357 180.752,366.490 180.828 C 366.111 180.844,366.540 181.186,367.444 181.588 M307.250 211.006 C 306.318 212.585,306.205 212.968,306.775 212.616 C 307.237 212.330,308.461 209.928,308.251 209.718 C 308.168 209.634,307.717 210.214,307.250 211.006 M305.673 213.687 C 305.413 213.947,305.200 214.301,305.200 214.472 C 305.200 214.644,304.570 215.769,303.800 216.973 C 303.030 218.177,302.400 219.268,302.400 219.397 C 302.400 219.526,302.059 220.120,301.643 220.716 C 301.226 221.312,299.067 224.559,296.845 227.930 C 281.599 251.062,264.155 266.208,247.489 270.785 C 246.437 271.074,245.671 271.405,245.787 271.520 C 246.012 271.745,248.954 270.954,250.095 270.361 C 250.477 270.162,250.981 270.000,251.216 270.000 C 252.476 270.000,265.882 262.799,266.800 261.629 C 266.910 261.489,267.783 260.808,268.741 260.115 C 274.099 256.239,284.239 246.099,288.115 240.741 C 288.808 239.783,289.477 238.910,289.603 238.800 C 289.876 238.561,293.123 234.217,294.089 232.800 C 294.463 232.250,295.497 230.747,296.385 229.460 C 297.273 228.172,298.000 226.972,298.000 226.793 C 298.000 226.614,298.154 226.407,298.343 226.333 C 298.839 226.140,302.610 220.053,305.364 215.000 C 305.604 214.560,305.975 214.075,306.188 213.922 C 306.402 213.769,306.480 213.547,306.362 213.428 C 306.243 213.310,305.934 213.426,305.673 213.687 M215.800 236.642 C 205.092 238.178,197.437 245.941,195.001 257.735 C 194.645 259.457,194.419 261.166,194.499 261.533 C 194.579 261.900,194.938 260.760,195.296 259.000 C 196.320 253.975,196.582 253.154,198.241 249.785 C 200.967 244.250,207.268 238.880,212.219 237.875 C 217.951 236.710,222.387 236.609,223.017 237.628 C 223.144 237.833,223.642 237.993,224.124 237.984 C 224.937 237.969,224.922 237.925,223.917 237.380 C 222.807 236.777,217.942 236.335,215.800 236.642 M226.000 238.678 C 226.550 239.060,227.789 240.145,228.753 241.087 C 229.717 242.029,230.609 242.800,230.736 242.800 C 231.270 242.800,227.299 239.087,226.200 238.559 L 225.000 237.982 226.000 238.678 M230.813 243.420 C 230.806 243.651,231.025 244.065,231.300 244.340 C 232.368 245.409,231.897 252.535,230.651 254.169 C 229.397 255.813,228.585 255.992,228.260 254.698 C 226.604 248.098,214.978 250.272,215.241 257.132 C 215.281 258.189,215.285 258.187,215.574 257.000 C 217.257 250.085,224.929 248.606,227.794 254.644 C 229.762 258.790,233.153 252.418,232.236 246.299 C 231.996 244.698,230.845 242.369,230.813 243.420 M214.618 259.336 C 214.006 261.490,215.718 265.616,218.280 268.161 C 219.904 269.775,223.128 271.805,223.491 271.442 C 223.589 271.345,223.248 271.048,222.734 270.783 C 218.222 268.455,215.703 265.137,215.238 260.910 C 214.985 258.605,214.892 258.370,214.618 259.336 M194.137 267.400 C 194.139 269.160,194.209 269.830,194.293 268.889 C 194.378 267.949,194.377 266.509,194.291 265.689 C 194.205 264.870,194.136 265.640,194.137 267.400 M225.000 272.187 C 227.785 273.430,229.482 273.671,234.017 273.468 C 239.381 273.228,243.188 272.692,244.246 272.026 C 244.899 271.615,244.839 271.584,243.800 271.792 C 235.425 273.475,226.988 273.522,225.360 271.894 C 225.199 271.732,224.782 271.612,224.433 271.626 C 224.085 271.640,224.340 271.892,225.000 272.187 M194.440 273.240 C 194.418 273.812,194.561 274.802,194.759 275.440 C 194.956 276.078,195.425 277.643,195.801 278.917 C 196.564 281.502,198.735 286.199,199.030 285.904 C 199.134 285.799,198.866 285.013,198.434 284.157 C 196.770 280.862,196.093 278.950,195.053 274.600 C 194.724 273.224,194.462 272.644,194.440 273.240 M200.354 288.192 C 204.462 294.670,216.639 303.200,221.778 303.200 C 222.622 303.200,221.290 302.529,219.000 301.802 C 212.370 299.694,204.812 294.068,200.863 288.300 C 199.214 285.893,198.846 285.814,200.354 288.192 M248.800 302.800 C 248.013 303.309,249.416 303.309,250.600 302.800 C 251.333 302.485,251.316 302.454,250.400 302.434 C 249.850 302.422,249.130 302.587,248.800 302.800 M223.400 303.635 C 224.623 304.065,228.530 304.631,233.200 305.052 C 235.723 305.280,243.791 304.424,246.800 303.609 L 248.200 303.230 246.600 303.380 C 245.720 303.462,242.895 303.829,240.321 304.196 C 235.428 304.893,235.540 304.898,223.800 303.414 C 222.277 303.222,222.258 303.233,223.400 303.635 M236.400 342.027 C 231.745 342.717,227.336 343.564,224.000 344.410 C 223.230 344.605,221.610 344.992,220.400 345.270 C 219.008 345.589,218.523 345.825,219.079 345.912 C 219.563 345.988,220.316 345.859,220.753 345.625 C 221.190 345.391,221.951 345.200,222.445 345.200 C 222.939 345.200,223.896 345.035,224.572 344.833 C 227.776 343.875,234.743 342.651,240.800 341.982 C 245.863 341.423,246.512 341.259,243.600 341.275 C 242.390 341.281,239.150 341.620,236.400 342.027 M261.400 341.630 C 264.797 342.025,272.726 342.823,275.200 343.019 C 276.190 343.097,275.650 342.923,274.000 342.632 C 270.077 341.940,262.637 341.186,260.382 341.252 C 258.920 341.294,259.103 341.362,261.400 341.630 M277.600 343.537 C 277.930 343.752,279.100 344.115,280.200 344.345 C 281.300 344.575,282.920 344.943,283.800 345.163 C 286.889 345.937,287.798 346.107,287.583 345.871 C 287.254 345.509,281.987 344.100,278.400 343.414 C 277.426 343.228,277.183 343.266,277.600 343.537 M215.200 346.423 C 214.650 346.609,213.210 347.038,212.000 347.376 C 210.542 347.785,210.272 347.936,211.200 347.826 C 214.571 347.427,219.356 345.965,217.000 346.055 C 216.560 346.071,215.750 346.237,215.200 346.423 M289.000 346.577 C 290.935 347.425,293.243 348.090,293.469 347.864 C 293.584 347.749,292.895 347.433,291.939 347.160 C 290.983 346.888,290.029 346.515,289.820 346.333 C 289.611 346.150,289.071 346.012,288.620 346.026 C 287.968 346.046,288.045 346.159,289.000 346.577 M206.800 348.434 C 206.250 348.626,204.360 349.039,202.600 349.351 C 200.353 349.750,199.845 349.931,200.894 349.960 C 202.339 349.999,204.234 349.632,208.000 348.584 C 209.150 348.264,209.439 348.084,208.800 348.084 C 208.250 348.085,207.350 348.242,206.800 348.434 M295.200 348.680 C 295.970 349.026,296.960 349.442,297.400 349.605 C 297.840 349.767,298.718 350.110,299.352 350.365 C 299.985 350.621,300.595 350.738,300.707 350.626 C 300.819 350.514,300.391 350.237,299.755 350.011 C 299.120 349.785,298.287 349.420,297.905 349.200 C 297.523 348.980,296.859 348.800,296.429 348.800 C 295.999 348.800,295.536 348.620,295.400 348.400 C 295.264 348.180,294.848 348.012,294.476 348.026 C 294.104 348.040,294.430 348.334,295.200 348.680 M195.200 350.400 C 193.870 350.680,193.900 350.697,195.800 350.741 C 196.900 350.767,198.070 350.613,198.400 350.400 C 199.120 349.935,197.411 349.935,195.200 350.400 M191.067 351.067 C 190.649 351.484,190.754 354.662,191.250 356.633 C 191.796 358.803,193.937 361.082,195.727 361.400 C 198.092 361.821,321.806 361.428,321.709 361.000 C 321.606 360.546,316.377 357.490,316.128 357.739 C 315.968 357.899,318.647 359.600,319.060 359.600 C 319.177 359.600,319.731 359.960,320.291 360.400 L 321.308 361.200 258.513 361.200 L 195.718 361.200 194.390 360.300 C 191.163 358.113,189.951 351.503,192.701 351.086 C 193.777 350.923,193.774 350.919,192.567 350.860 C 191.888 350.827,191.213 350.920,191.067 351.067 M302.400 351.479 C 303.170 351.824,304.700 352.510,305.800 353.002 C 306.900 353.495,309.419 354.686,311.398 355.649 C 315.872 357.826,315.758 357.779,315.485 357.337 C 315.245 356.950,313.910 356.261,308.400 353.682 C 303.904 351.577,301.999 350.795,301.451 350.826 C 301.203 350.840,301.630 351.134,302.400 351.479 " stroke="none" fill="#a4bbc3" fill-rule="evenodd"></path><path id="path1" d="M322.662 181.531 C 322.298 181.934,322.000 182.476,322.000 182.737 C 322.000 182.998,321.831 183.523,321.624 183.905 C 321.417 184.287,319.166 188.830,316.623 194.000 C 314.079 199.170,311.277 204.660,310.396 206.200 C 309.514 207.740,308.431 209.720,307.989 210.600 C 307.145 212.282,306.336 213.664,306.000 214.000 C 305.890 214.110,305.604 214.560,305.364 215.000 C 302.610 220.053,298.839 226.140,298.343 226.333 C 298.154 226.407,298.000 226.614,298.000 226.793 C 298.000 226.972,297.273 228.172,296.385 229.460 C 295.497 230.747,294.463 232.250,294.089 232.800 C 293.123 234.217,289.876 238.561,289.603 238.800 C 289.477 238.910,288.808 239.783,288.115 240.741 C 284.239 246.099,274.099 256.239,268.741 260.115 C 267.783 260.808,266.910 261.489,266.800 261.629 C 265.882 262.799,252.476 270.000,251.216 270.000 C 250.981 270.000,250.477 270.162,250.095 270.361 C 249.713 270.560,248.590 270.931,247.600 271.186 C 246.610 271.441,245.260 271.831,244.600 272.053 C 240.904 273.297,229.852 273.849,226.800 272.942 C 219.099 270.653,213.049 263.691,214.728 259.048 C 214.988 258.330,215.200 257.366,215.200 256.904 C 215.200 250.180,226.641 248.247,228.260 254.698 C 228.584 255.989,229.396 255.814,230.639 254.184 C 231.957 252.456,232.302 246.301,231.200 244.164 C 229.861 241.566,225.725 238.000,224.052 238.000 C 223.609 238.000,223.144 237.833,223.017 237.628 C 222.387 236.609,217.951 236.710,212.219 237.875 C 205.845 239.169,198.128 247.181,196.325 254.375 C 193.652 265.037,193.805 273.580,196.793 280.600 C 201.242 291.051,209.031 298.534,218.800 301.745 C 220.010 302.143,221.360 302.620,221.800 302.807 C 222.862 303.256,224.414 303.513,230.521 304.247 C 236.495 304.965,242.596 304.367,251.200 302.220 C 252.630 301.863,255.150 301.310,256.800 300.990 C 259.525 300.462,260.753 300.068,265.800 298.104 C 270.753 296.176,278.224 292.525,283.886 289.264 C 287.868 286.971,292.573 283.920,292.733 283.526 C 292.807 283.347,293.044 283.200,293.260 283.200 C 293.476 283.200,294.316 282.705,295.126 282.100 C 295.936 281.495,296.779 280.867,297.000 280.704 C 305.024 274.775,316.225 264.446,321.619 258.000 C 322.816 256.570,323.901 255.310,324.030 255.200 C 324.620 254.696,331.683 245.106,332.751 243.359 C 338.575 233.822,342.974 225.208,345.214 218.954 C 345.678 217.659,346.208 216.240,346.392 215.800 C 346.577 215.360,346.839 214.656,346.976 214.236 C 347.286 213.280,348.166 214.062,352.897 219.500 C 356.391 223.518,356.625 223.644,358.045 222.289 C 358.570 221.788,359.720 220.853,360.600 220.210 C 361.480 219.568,362.290 218.941,362.400 218.817 C 363.659 217.402,367.200 215.925,367.200 216.816 C 367.200 217.044,367.398 218.979,367.640 221.116 C 368.729 230.732,364.834 252.882,359.993 264.600 C 359.811 265.040,359.359 266.300,358.989 267.400 C 358.618 268.500,358.169 269.760,357.991 270.200 C 357.813 270.640,356.287 274.690,354.600 279.200 C 352.913 283.710,351.381 287.760,351.195 288.200 C 350.779 289.185,349.227 293.439,348.788 294.800 C 347.318 299.356,346.267 302.823,345.998 304.000 C 345.822 304.770,345.280 307.110,344.794 309.200 C 342.350 319.691,344.446 337.897,348.595 342.222 C 350.775 344.495,362.314 347.072,368.800 346.735 L 371.400 346.600 371.520 267.800 C 371.658 176.963,371.980 183.563,367.313 181.563 C 364.613 180.405,323.707 180.377,322.662 181.531 M245.200 341.415 C 244.870 341.482,242.890 341.738,240.800 341.982 C 235.377 342.618,231.638 343.190,229.843 343.659 C 228.987 343.883,227.367 344.239,226.243 344.450 C 225.119 344.662,223.435 345.007,222.500 345.217 C 221.565 345.428,220.028 345.746,219.085 345.924 C 218.142 346.102,217.164 346.375,216.912 346.531 C 216.491 346.791,215.480 347.039,211.000 347.983 C 210.120 348.169,208.140 348.621,206.600 348.988 C 203.771 349.662,201.371 350.041,195.226 350.785 C 191.294 351.260,191.089 351.456,191.370 354.469 C 191.624 357.199,192.603 359.088,194.390 360.300 L 195.718 361.200 258.548 361.200 C 318.449 361.200,321.332 361.167,320.389 360.501 C 318.955 359.489,316.752 358.296,312.000 355.959 C 305.566 352.796,304.131 352.171,297.400 349.601 C 296.960 349.433,295.880 349.015,295.000 348.672 C 294.120 348.329,292.680 347.835,291.800 347.573 C 290.920 347.312,289.750 346.917,289.200 346.697 C 288.213 346.302,286.736 345.877,284.000 345.201 C 283.230 345.011,281.430 344.563,280.000 344.205 C 276.521 343.335,273.825 342.904,268.800 342.412 C 266.490 342.186,262.942 341.821,260.916 341.601 C 257.596 341.240,246.694 341.111,245.200 341.415 " stroke="none" fill="#fafafa" fill-rule="evenodd"></path><path id="path2" d="M325.406 175.993 C 324.697 176.777,323.920 176.787,259.444 176.893 L 194.200 177.000 192.460 177.995 C 190.228 179.273,188.195 181.530,187.529 183.472 C 187.106 184.703,186.950 201.161,186.728 268.200 C 186.576 313.960,186.339 353.335,186.200 355.700 C 186.029 358.631,186.084 360.000,186.374 360.000 C 186.608 360.000,186.800 360.296,186.800 360.657 C 186.800 361.361,188.927 363.600,189.596 363.600 C 189.818 363.600,190.000 363.793,190.000 364.029 C 190.000 364.734,191.086 365.600,191.971 365.600 C 192.441 365.600,192.800 365.860,192.800 366.200 C 192.800 367.114,369.105 367.114,369.455 366.200 C 369.582 365.870,370.116 365.600,370.643 365.600 C 371.169 365.600,371.600 365.420,371.600 365.200 C 371.600 364.980,371.864 364.800,372.186 364.800 C 373.066 364.800,375.200 362.543,375.200 361.613 C 375.200 361.157,375.463 360.800,375.800 360.800 C 376.244 360.800,376.400 360.333,376.400 359.000 C 376.400 358.010,376.580 357.200,376.800 357.200 C 377.065 357.200,377.200 328.267,377.200 271.200 C 377.200 214.133,377.065 185.200,376.800 185.200 C 376.580 185.200,376.400 184.480,376.400 183.600 C 376.400 182.444,376.233 182.000,375.800 182.000 C 375.467 182.000,375.200 181.644,375.200 181.200 C 375.200 180.760,375.020 180.400,374.800 180.400 C 374.580 180.400,374.400 179.950,374.400 179.400 C 374.400 178.600,374.200 178.400,373.400 178.400 C 372.850 178.400,372.400 178.207,372.400 177.971 C 372.400 177.117,371.226 176.400,369.829 176.400 C 368.825 176.400,368.400 176.221,368.400 175.800 C 368.400 174.726,326.382 174.915,325.406 175.993 M368.938 181.216 C 369.867 181.765,370.664 182.754,371.361 184.227 L 372.400 186.422 372.390 270.511 C 372.381 356.291,372.375 356.620,370.753 358.987 C 368.785 361.859,369.874 361.745,341.600 362.043 C 299.700 362.484,197.280 362.453,197.000 362.000 C 196.864 361.780,196.167 361.600,195.452 361.600 C 194.721 361.600,193.811 361.271,193.375 360.849 C 192.011 359.528,191.200 358.406,191.200 357.841 C 191.200 357.539,190.931 356.776,190.602 356.146 C 189.876 354.752,189.811 351.450,190.500 350.896 C 191.065 350.443,192.836 350.107,197.200 349.627 C 198.850 349.445,201.640 348.987,203.400 348.609 C 205.160 348.231,207.410 347.830,208.400 347.718 C 209.390 347.606,210.380 347.370,210.600 347.195 C 210.820 347.019,211.857 346.747,212.905 346.591 C 213.953 346.435,214.908 346.148,215.029 345.954 C 215.149 345.759,215.946 345.600,216.800 345.600 C 217.654 345.600,218.464 345.420,218.600 345.200 C 218.736 344.980,219.512 344.794,220.324 344.786 C 221.136 344.778,222.250 344.514,222.800 344.200 C 223.350 343.886,224.439 343.622,225.220 343.614 C 226.001 343.606,226.811 343.437,227.020 343.239 C 227.229 343.040,228.210 342.794,229.200 342.692 C 230.190 342.590,231.990 342.308,233.200 342.064 C 239.281 340.842,241.300 340.735,254.600 340.934 C 267.775 341.131,274.079 341.507,275.135 342.160 C 275.416 342.333,276.580 342.631,277.723 342.821 C 282.398 343.600,283.661 343.901,284.100 344.340 C 284.353 344.593,285.143 344.800,285.856 344.800 C 286.569 344.800,287.264 344.980,287.400 345.200 C 287.536 345.420,288.166 345.600,288.800 345.600 C 289.434 345.600,290.064 345.780,290.200 346.000 C 290.336 346.220,290.752 346.401,291.124 346.402 C 291.496 346.404,292.316 346.674,292.946 347.002 C 293.576 347.331,294.420 347.600,294.822 347.600 C 295.224 347.600,295.650 347.757,295.768 347.948 C 295.886 348.140,296.526 348.405,297.189 348.538 C 297.853 348.671,299.150 349.144,300.073 349.590 C 300.995 350.035,301.908 350.400,302.100 350.400 C 302.458 350.400,305.433 351.706,309.006 353.431 C 310.109 353.964,311.234 354.400,311.506 354.400 C 311.778 354.400,312.000 354.580,312.000 354.800 C 312.000 355.020,312.349 355.200,312.776 355.200 C 313.203 355.200,313.664 355.379,313.799 355.599 C 313.935 355.818,314.980 356.444,316.123 356.991 C 317.265 357.537,318.970 358.438,319.911 358.992 C 320.852 359.546,321.682 360.000,321.755 360.000 C 322.110 360.000,321.443 357.968,320.956 357.563 C 320.650 357.310,320.400 356.685,320.400 356.175 C 320.400 355.665,320.220 355.136,320.000 355.000 C 319.780 354.864,319.600 354.401,319.600 353.971 C 319.600 353.541,319.429 352.877,319.219 352.495 C 318.873 351.862,318.185 350.260,317.117 347.600 C 316.469 345.986,315.539 343.854,315.156 343.105 C 314.960 342.723,314.800 342.186,314.800 341.911 C 314.800 341.636,314.368 340.509,313.840 339.406 C 312.040 335.643,310.800 332.779,310.800 332.384 C 310.800 332.167,310.633 331.677,310.429 331.295 C 310.224 330.913,309.676 329.761,309.210 328.736 C 308.387 326.924,308.305 326.866,306.282 326.656 C 301.130 326.122,298.536 325.701,297.726 325.268 C 297.246 325.011,295.977 324.800,294.906 324.800 C 293.836 324.800,292.789 324.637,292.580 324.437 C 292.371 324.237,291.300 323.982,290.200 323.870 C 287.344 323.580,283.536 322.852,282.600 322.417 C 282.160 322.213,281.080 321.960,280.200 321.857 C 277.640 321.554,274.666 320.826,274.236 320.396 C 274.018 320.178,273.347 320.000,272.744 320.000 C 272.141 320.000,271.536 319.820,271.400 319.600 C 271.264 319.380,270.734 319.200,270.222 319.200 C 269.710 319.200,268.776 318.931,268.146 318.602 C 267.516 318.274,266.696 318.004,266.324 318.002 C 265.952 318.001,265.536 317.820,265.400 317.600 C 265.264 317.380,264.906 317.200,264.604 317.200 C 263.420 317.200,258.717 314.687,257.273 313.283 C 254.381 310.470,254.000 309.627,254.000 306.038 L 254.000 302.800 252.824 302.800 C 252.177 302.800,251.536 302.980,251.400 303.200 C 251.264 303.420,250.432 303.600,249.550 303.600 C 248.669 303.600,247.598 303.787,247.170 304.016 C 243.673 305.888,229.668 305.989,223.946 304.185 C 222.927 303.863,221.722 303.600,221.270 303.600 C 220.817 303.600,220.336 303.420,220.200 303.200 C 220.064 302.980,219.586 302.800,219.137 302.800 C 218.354 302.800,213.318 300.461,210.400 298.742 C 207.115 296.806,200.800 290.791,200.800 289.597 C 200.800 289.379,200.661 289.200,200.491 289.200 C 200.321 289.200,199.828 288.525,199.395 287.700 C 198.962 286.875,198.502 286.110,198.374 286.000 C 198.082 285.750,197.029 283.729,196.499 282.400 C 196.279 281.850,195.872 280.860,195.594 280.200 C 194.675 278.018,194.232 275.607,193.363 268.052 C 193.219 266.800,193.295 265.548,193.545 265.052 C 193.780 264.583,194.050 262.850,194.144 261.200 C 194.375 257.178,195.549 252.318,196.526 251.341 C 196.677 251.190,196.800 250.813,196.800 250.503 C 196.800 247.846,205.843 238.400,208.386 238.400 C 208.620 238.400,209.123 238.229,209.505 238.019 C 212.028 236.637,214.811 236.016,218.800 235.944 C 221.291 235.899,226.400 237.340,226.400 238.088 C 226.400 238.259,226.646 238.400,226.947 238.400 C 227.248 238.400,228.328 239.234,229.347 240.253 C 230.366 241.272,231.200 242.352,231.200 242.653 C 231.200 242.954,231.366 243.200,231.568 243.200 C 231.771 243.200,232.055 243.738,232.199 244.395 C 232.343 245.053,232.628 245.694,232.831 245.819 C 233.729 246.374,232.742 253.463,231.636 254.400 C 231.506 254.510,231.202 254.960,230.960 255.400 C 230.170 256.835,228.162 256.680,227.377 255.124 C 225.308 251.026,221.091 250.127,218.264 253.183 C 217.459 254.053,216.800 255.007,216.800 255.303 C 216.800 255.598,216.598 256.042,216.350 256.290 C 215.449 257.191,215.710 262.465,216.757 264.509 C 217.943 266.825,220.892 269.584,222.900 270.258 C 223.285 270.388,223.600 270.652,223.600 270.847 C 223.600 271.041,223.915 271.203,224.300 271.206 C 224.685 271.209,225.720 271.471,226.600 271.788 C 228.495 272.471,237.117 272.572,240.200 271.947 C 241.300 271.724,242.965 271.447,243.900 271.331 C 244.835 271.214,245.600 270.977,245.600 270.803 C 245.600 270.630,246.185 270.400,246.900 270.294 C 247.615 270.187,248.830 269.871,249.600 269.590 C 250.370 269.310,251.360 268.949,251.800 268.788 C 252.240 268.627,253.562 268.024,254.737 267.448 C 255.912 266.871,257.127 266.400,257.437 266.400 C 257.747 266.400,258.000 266.238,258.000 266.040 C 258.000 265.841,258.809 265.346,259.799 264.940 C 260.788 264.533,261.598 264.065,261.599 263.900 C 261.599 263.735,261.855 263.600,262.167 263.600 C 262.478 263.600,262.793 263.462,262.867 263.293 C 262.940 263.124,263.901 262.413,265.001 261.714 C 266.102 261.015,267.362 260.113,267.801 259.709 C 268.241 259.306,269.314 258.441,270.187 257.788 C 273.992 254.938,280.941 247.996,285.195 242.795 C 286.181 241.588,287.094 240.510,287.222 240.400 C 287.819 239.889,295.971 228.793,296.332 228.000 C 296.483 227.670,297.785 225.600,299.226 223.400 C 300.668 221.200,301.970 219.130,302.121 218.800 C 302.440 218.102,303.310 216.690,303.600 216.400 C 303.710 216.290,304.143 215.525,304.563 214.700 C 304.983 213.875,305.478 213.200,305.663 213.200 C 305.848 213.200,306.000 212.876,306.000 212.480 C 306.000 212.084,306.158 211.589,306.351 211.380 C 306.543 211.171,307.196 210.100,307.802 209.000 C 310.007 204.991,312.165 200.954,313.147 199.000 C 313.700 197.900,314.298 196.940,314.476 196.867 C 314.654 196.793,314.800 196.497,314.800 196.208 C 314.800 195.919,315.411 194.449,316.157 192.941 C 318.407 188.394,321.497 181.845,321.743 181.100 C 322.133 179.922,366.932 180.033,368.938 181.216 " stroke="none" fill="#344c54" fill-rule="evenodd"></path><path id="path3" d="M325.033 175.900 C 324.868 176.065,295.363 176.290,259.467 176.400 L 194.200 176.600 192.079 177.768 C 190.913 178.410,189.578 179.490,189.113 180.168 L 188.267 181.400 189.634 180.137 C 190.385 179.442,191.720 178.452,192.600 177.937 L 194.200 177.000 259.457 176.893 C 316.544 176.799,324.775 176.712,325.206 176.193 C 325.709 175.587,325.575 175.358,325.033 175.900 M368.170 181.235 C 369.028 181.695,370.074 182.460,370.497 182.935 L 371.264 183.800 370.662 182.854 C 370.026 181.854,367.913 180.400,367.096 180.400 C 366.830 180.400,367.313 180.776,368.170 181.235 M187.280 183.100 C 186.647 184.496,186.600 190.373,186.597 267.800 L 186.593 351.000 186.797 268.000 C 186.982 192.485,187.059 184.847,187.653 183.300 C 188.461 181.199,188.203 181.061,187.280 183.100 M371.472 185.000 C 372.132 186.610,372.075 354.337,371.414 356.610 C 370.719 359.002,369.656 360.095,367.200 360.941 C 366.076 361.329,365.733 361.569,366.286 361.581 C 368.713 361.633,371.325 359.149,372.028 356.121 C 372.724 353.124,372.460 186.345,371.758 185.200 C 371.421 184.650,371.292 184.560,371.472 185.000 M318.462 188.062 C 317.977 188.970,317.642 189.776,317.718 189.852 C 317.795 189.928,318.254 189.247,318.738 188.338 C 319.223 187.430,319.558 186.624,319.482 186.548 C 319.405 186.472,318.946 187.153,318.462 188.062 M316.032 193.139 C 315.379 194.360,315.514 194.700,316.241 193.663 C 316.593 193.160,316.788 192.654,316.673 192.540 C 316.559 192.425,316.270 192.695,316.032 193.139 M313.536 198.191 C 313.189 198.956,313.051 199.492,313.228 199.383 C 313.701 199.090,314.787 196.800,314.453 196.800 C 314.295 196.800,313.883 197.426,313.536 198.191 M308.823 207.050 C 308.353 207.848,308.033 208.566,308.113 208.646 C 308.192 208.726,308.661 208.073,309.154 207.196 C 310.275 205.202,309.988 205.077,308.823 207.050 M304.432 214.739 C 303.779 215.960,303.914 216.300,304.641 215.263 C 304.993 214.760,305.188 214.254,305.073 214.140 C 304.959 214.025,304.670 214.295,304.432 214.739 M290.040 236.678 C 289.370 237.490,288.932 238.255,289.066 238.378 C 289.200 238.500,289.392 238.368,289.493 238.085 C 289.594 237.802,290.125 237.037,290.674 236.385 C 291.222 235.733,291.578 235.200,291.465 235.200 C 291.351 235.200,290.710 235.865,290.040 236.678 M217.200 236.000 C 216.773 236.276,217.234 236.388,218.800 236.388 C 220.366 236.388,220.827 236.276,220.400 236.000 C 220.070 235.787,219.350 235.612,218.800 235.612 C 218.250 235.612,217.530 235.787,217.200 236.000 M211.600 237.033 C 210.304 237.753,210.972 237.742,213.000 237.012 C 214.224 236.571,214.365 236.440,213.600 236.457 C 213.050 236.469,212.150 236.728,211.600 237.033 M223.546 237.016 C 224.286 237.337,225.006 237.594,225.146 237.586 C 225.666 237.557,223.376 236.428,222.800 236.430 C 222.470 236.431,222.806 236.694,223.546 237.016 M226.842 238.500 C 226.938 238.555,227.998 239.500,229.196 240.600 C 230.395 241.700,231.021 242.153,230.588 241.606 C 229.503 240.238,227.477 238.414,227.033 238.406 C 226.832 238.403,226.745 238.445,226.842 238.500 M287.772 239.706 C 285.188 242.738,283.600 244.745,283.600 244.978 C 283.600 245.206,286.618 241.727,288.353 239.500 C 289.150 238.476,288.677 238.644,287.772 239.706 M203.643 241.223 C 203.117 241.661,202.771 242.105,202.875 242.208 C 202.979 242.312,203.486 241.948,204.001 241.398 C 205.124 240.204,204.962 240.125,203.643 241.223 M201.570 243.124 C 201.224 243.496,200.432 244.520,199.810 245.400 C 198.785 246.849,198.853 246.811,200.529 245.000 C 201.546 243.900,202.383 242.865,202.389 242.700 C 202.404 242.288,202.297 242.344,201.570 243.124 M232.002 244.820 C 232.001 245.161,232.202 245.642,232.449 245.889 C 232.892 246.332,232.763 250.242,232.234 252.400 C 232.099 252.950,232.248 252.770,232.564 252.000 C 233.327 250.144,233.346 246.772,232.602 245.346 C 232.274 244.716,232.004 244.479,232.002 244.820 M281.933 246.364 C 281.860 246.564,280.752 247.841,279.471 249.201 C 278.189 250.562,277.202 251.735,277.276 251.809 C 277.349 251.883,278.636 250.606,280.133 248.972 C 281.631 247.337,282.679 246.000,282.462 246.000 C 282.245 246.000,282.007 246.164,281.933 246.364 M197.285 249.213 C 197.018 249.640,196.807 250.217,196.816 250.495 C 196.825 250.773,197.109 250.489,197.447 249.865 C 198.150 248.568,198.018 248.038,197.285 249.213 M221.107 251.490 C 221.826 251.579,222.906 251.577,223.507 251.486 C 224.108 251.395,223.520 251.322,222.200 251.324 C 220.880 251.326,220.388 251.401,221.107 251.490 M218.000 253.000 C 217.254 253.770,216.813 254.387,217.022 254.371 C 217.382 254.344,219.854 251.600,219.518 251.600 C 219.429 251.600,218.746 252.230,218.000 253.000 M225.654 252.601 C 226.234 253.261,227.004 254.385,227.365 255.100 C 227.725 255.815,228.110 256.400,228.218 256.400 C 228.691 256.400,226.775 253.309,225.739 252.401 L 224.600 251.403 225.654 252.601 M274.256 254.238 C 272.968 255.452,271.978 256.509,272.056 256.585 C 272.135 256.661,273.280 255.662,274.600 254.365 C 277.630 251.388,277.379 251.295,274.256 254.238 M195.218 254.356 C 194.949 255.005,194.814 255.866,194.918 256.268 C 195.067 256.842,195.117 256.801,195.154 256.074 C 195.179 255.564,195.395 254.784,195.632 254.339 C 195.870 253.895,195.984 253.451,195.886 253.353 C 195.788 253.255,195.488 253.706,195.218 254.356 M230.202 255.598 C 229.803 256.039,229.662 256.400,229.889 256.400 C 230.392 256.400,231.390 255.257,231.121 254.988 C 231.015 254.882,230.602 255.156,230.202 255.598 M216.032 256.141 C 215.755 256.658,215.610 257.512,215.710 258.040 C 215.864 258.856,215.899 258.816,215.946 257.780 C 215.975 257.109,216.213 256.347,216.473 256.087 C 216.734 255.826,216.854 255.521,216.741 255.407 C 216.627 255.294,216.308 255.624,216.032 256.141 M269.910 257.915 C 269.091 258.512,268.416 259.150,268.410 259.334 C 268.405 259.517,269.120 259.097,270.000 258.400 C 270.880 257.703,271.600 257.058,271.600 256.966 C 271.600 256.703,271.486 256.767,269.910 257.915 M194.249 258.215 C 194.112 258.573,194.018 259.256,194.041 259.733 C 194.067 260.281,194.203 260.086,194.410 259.203 C 194.760 257.716,194.665 257.133,194.249 258.215 M215.293 260.400 C 215.293 261.170,215.375 261.485,215.476 261.100 C 215.576 260.715,215.576 260.085,215.476 259.700 C 215.375 259.315,215.293 259.630,215.293 260.400 M263.901 262.337 C 263.296 262.701,262.801 263.147,262.801 263.327 C 262.800 263.507,263.340 263.270,264.000 262.800 C 265.777 261.534,265.715 261.242,263.901 262.337 M215.646 262.624 C 215.621 263.076,215.864 263.796,216.187 264.224 C 216.510 264.651,216.780 264.811,216.787 264.580 C 216.794 264.349,216.637 263.989,216.439 263.780 C 216.240 263.571,215.991 263.040,215.885 262.600 C 215.697 261.820,215.692 261.820,215.646 262.624 M193.467 265.067 C 193.106 265.427,193.138 269.283,193.506 269.862 C 193.668 270.116,193.800 269.081,193.800 267.562 C 193.800 266.043,193.785 264.800,193.767 264.800 C 193.748 264.800,193.613 264.920,193.467 265.067 M258.900 265.288 C 258.405 265.527,258.000 265.879,258.000 266.070 C 258.000 266.262,258.450 266.124,259.000 265.763 C 260.467 264.802,260.416 264.557,258.900 265.288 M255.600 267.033 C 255.042 267.343,254.865 267.585,255.200 267.581 C 255.530 267.578,256.149 267.310,256.576 266.987 C 257.539 266.259,256.945 266.287,255.600 267.033 M248.800 269.800 C 247.467 270.562,248.394 270.564,249.854 269.802 C 250.484 269.474,250.730 269.210,250.400 269.217 C 250.070 269.223,249.350 269.486,248.800 269.800 M225.546 271.816 C 226.286 272.137,227.186 272.392,227.546 272.382 C 227.906 272.373,227.480 272.105,226.600 271.788 C 224.527 271.042,223.806 271.060,225.546 271.816 M242.259 271.474 C 242.108 271.625,241.223 271.884,240.293 272.050 L 238.600 272.351 240.200 272.211 C 242.498 272.010,244.973 271.297,243.567 271.241 C 242.998 271.218,242.410 271.323,242.259 271.474 M229.800 272.800 C 230.240 272.989,231.680 273.144,233.000 273.144 C 234.320 273.144,235.760 272.989,236.200 272.800 C 236.717 272.578,235.584 272.456,233.000 272.456 C 230.416 272.456,229.283 272.578,229.800 272.800 M194.006 274.633 C 194.009 275.055,194.195 275.670,194.418 276.000 C 194.715 276.438,194.752 276.276,194.556 275.400 C 194.227 273.929,193.998 273.610,194.006 274.633 M194.855 277.600 C 194.840 278.150,195.104 279.050,195.442 279.600 C 195.849 280.264,195.962 280.331,195.778 279.800 C 195.626 279.360,195.362 278.460,195.191 277.800 C 194.908 276.702,194.880 276.685,194.855 277.600 M196.832 283.068 C 196.789 283.699,198.118 285.994,198.527 285.997 C 198.707 285.999,198.508 285.505,198.084 284.900 C 197.661 284.295,197.213 283.530,197.089 283.200 C 196.965 282.870,196.849 282.810,196.832 283.068 M200.800 289.799 C 200.800 290.302,207.213 296.920,207.461 296.673 C 207.518 296.616,206.043 295.002,204.182 293.086 C 202.322 291.171,200.800 289.691,200.800 289.799 M208.000 296.986 C 208.000 297.299,210.450 298.883,210.640 298.693 C 210.747 298.586,210.196 298.123,209.417 297.663 C 208.638 297.203,208.000 296.899,208.000 296.986 M217.146 302.216 C 217.886 302.537,218.696 302.793,218.946 302.784 C 219.196 302.776,218.794 302.506,218.054 302.184 C 217.314 301.863,216.504 301.607,216.254 301.616 C 216.004 301.624,216.406 301.894,217.146 302.216 M252.900 302.687 C 253.505 302.778,254.000 303.032,254.000 303.250 C 254.000 303.469,254.180 303.536,254.400 303.400 C 255.266 302.865,254.725 302.403,253.300 302.460 C 252.093 302.508,252.015 302.552,252.900 302.687 M250.200 303.200 C 249.429 303.531,249.431 303.545,250.276 303.572 C 250.758 303.587,251.264 303.420,251.400 303.200 C 251.692 302.727,251.301 302.727,250.200 303.200 M226.600 304.809 C 227.700 305.011,229.680 305.261,231.000 305.364 C 233.386 305.550,233.388 305.550,231.400 305.216 C 230.300 305.031,228.320 304.781,227.000 304.660 L 224.600 304.441 226.600 304.809 M242.700 304.682 C 243.195 304.778,244.005 304.778,244.500 304.682 C 244.995 304.587,244.590 304.509,243.600 304.509 C 242.610 304.509,242.205 304.587,242.700 304.682 M239.000 305.200 L 237.400 305.486 239.000 305.537 C 239.880 305.565,240.870 305.413,241.200 305.200 C 241.915 304.738,241.581 304.738,239.000 305.200 M254.000 309.038 C 254.000 309.394,255.636 311.696,256.471 312.516 C 256.872 312.909,257.200 313.053,257.200 312.835 C 257.200 312.618,256.949 312.296,256.641 312.120 C 256.334 311.944,255.686 311.125,255.202 310.300 C 254.370 308.884,254.000 308.495,254.000 309.038 M257.652 313.555 C 257.861 314.184,261.190 316.144,261.508 315.825 C 261.626 315.707,261.083 315.343,260.301 315.017 C 259.519 314.690,258.563 314.106,258.176 313.718 C 257.745 313.288,257.541 313.224,257.652 313.555 M263.200 316.634 C 263.970 316.998,264.913 317.454,265.295 317.648 C 266.197 318.105,266.505 318.094,266.209 317.615 C 266.078 317.403,265.393 317.062,264.686 316.858 C 263.978 316.654,263.040 316.371,262.600 316.229 C 262.160 316.087,262.430 316.269,263.200 316.634 M268.146 318.563 C 268.776 318.913,269.710 319.200,270.222 319.200 C 270.734 319.200,271.264 319.380,271.400 319.600 C 271.536 319.820,271.952 319.995,272.324 319.988 C 273.255 319.971,271.947 319.209,270.233 318.770 C 269.555 318.596,268.550 318.335,268.000 318.190 C 267.080 317.947,267.092 317.977,268.146 318.563 M274.216 320.338 C 274.704 320.870,277.830 321.615,280.400 321.811 L 282.200 321.948 280.600 321.593 C 279.720 321.398,278.190 321.074,277.200 320.873 C 276.210 320.672,275.040 320.367,274.600 320.195 C 274.013 319.965,273.911 320.003,274.216 320.338 M282.600 322.400 C 282.736 322.620,283.242 322.787,283.724 322.772 C 284.569 322.745,284.571 322.731,283.800 322.400 C 282.699 321.927,282.308 321.927,282.600 322.400 M286.400 323.250 C 287.390 323.471,289.100 323.747,290.200 323.863 C 291.300 323.979,292.371 324.237,292.580 324.437 C 292.789 324.637,293.419 324.785,293.980 324.766 C 296.313 324.687,291.119 323.517,286.200 323.013 C 284.604 322.849,284.605 322.850,286.400 323.250 M297.783 325.239 C 298.502 325.692,301.804 326.236,305.800 326.559 C 306.680 326.631,306.860 326.618,306.200 326.532 C 305.540 326.446,304.640 326.209,304.200 326.006 C 303.760 325.802,302.410 325.562,301.200 325.472 C 299.990 325.382,298.550 325.181,298.000 325.026 C 297.085 324.769,297.067 324.787,297.783 325.239 M308.829 327.910 C 309.076 328.620,309.442 329.303,309.642 329.426 C 309.842 329.550,309.791 329.144,309.527 328.525 C 308.821 326.865,308.306 326.412,308.829 327.910 M310.817 332.400 C 310.831 333.117,311.965 335.200,311.986 334.546 C 311.994 334.296,311.731 333.576,311.402 332.946 C 311.074 332.316,310.810 332.070,310.817 332.400 M312.013 335.305 C 312.006 335.473,312.164 335.923,312.364 336.305 C 312.564 336.687,313.010 337.630,313.355 338.400 C 313.700 339.170,313.986 339.496,313.991 339.124 C 313.996 338.752,313.820 338.336,313.600 338.200 C 313.380 338.064,313.200 337.638,313.200 337.253 C 313.200 336.582,312.039 334.677,312.013 335.305 M238.400 341.184 C 237.850 341.351,238.930 341.399,240.800 341.290 C 242.670 341.182,244.275 341.027,244.367 340.946 C 244.682 340.670,239.399 340.880,238.400 341.184 M259.400 340.999 C 259.620 341.074,261.870 341.209,264.400 341.298 C 266.930 341.388,268.460 341.334,267.800 341.178 C 266.627 340.901,258.610 340.730,259.400 340.999 M234.505 341.887 C 235.114 341.979,236.014 341.977,236.505 341.882 C 236.997 341.787,236.500 341.711,235.400 341.714 C 234.300 341.717,233.897 341.795,234.505 341.887 M271.800 342.024 C 273.120 342.190,274.740 342.434,275.400 342.566 C 276.515 342.789,276.500 342.765,275.200 342.233 C 274.430 341.919,272.810 341.675,271.600 341.691 L 269.400 341.722 271.800 342.024 M314.809 341.905 C 314.804 342.183,314.959 342.723,315.153 343.105 C 315.348 343.487,315.738 344.295,316.021 344.899 C 316.303 345.504,316.607 345.927,316.695 345.838 C 316.783 345.750,316.679 345.345,316.464 344.939 C 316.249 344.533,315.790 343.570,315.445 342.800 C 315.100 342.030,314.814 341.627,314.809 341.905 M231.400 342.400 L 230.600 342.744 231.400 342.766 C 231.840 342.778,232.470 342.613,232.800 342.400 C 233.595 341.886,232.596 341.886,231.400 342.400 M227.000 343.200 C 226.708 343.673,227.099 343.673,228.200 343.200 C 228.971 342.869,228.969 342.855,228.124 342.828 C 227.642 342.813,227.136 342.980,227.000 343.200 M222.800 344.242 C 222.145 344.644,222.076 344.758,222.600 344.574 C 223.040 344.419,224.030 344.157,224.800 343.992 C 226.176 343.697,226.179 343.691,225.000 343.660 C 224.340 343.643,223.350 343.904,222.800 344.242 M282.235 343.977 C 282.914 344.139,283.724 344.404,284.035 344.566 C 284.346 344.727,284.251 344.576,283.824 344.230 C 283.396 343.883,282.586 343.618,282.024 343.641 C 281.082 343.679,281.100 343.706,282.235 343.977 M215.045 345.928 C 214.933 346.108,215.373 346.177,216.021 346.082 C 216.670 345.987,217.200 345.840,217.200 345.755 C 217.200 345.450,215.243 345.607,215.045 345.928 M289.775 346.217 C 290.421 346.554,291.231 346.754,291.575 346.661 C 291.969 346.555,291.876 346.476,291.324 346.446 C 290.842 346.421,290.336 346.220,290.200 346.000 C 290.064 345.780,289.648 345.601,289.276 345.602 C 288.856 345.604,289.044 345.837,289.775 346.217 M316.826 346.705 C 316.812 346.983,316.964 347.523,317.164 347.905 C 317.364 348.287,317.810 349.230,318.155 350.000 C 318.500 350.770,318.786 351.173,318.791 350.895 C 318.796 350.617,318.642 350.077,318.448 349.695 C 318.254 349.313,317.816 348.370,317.474 347.600 C 317.131 346.830,316.840 346.427,316.826 346.705 M206.400 348.000 C 205.605 348.514,206.604 348.514,207.800 348.000 L 208.600 347.656 207.800 347.634 C 207.360 347.622,206.730 347.787,206.400 348.000 M203.700 348.676 C 204.085 348.776,204.715 348.776,205.100 348.676 C 205.485 348.575,205.170 348.493,204.400 348.493 C 203.630 348.493,203.315 348.575,203.700 348.676 M200.600 349.200 C 200.096 349.417,200.022 349.544,200.400 349.544 C 200.730 349.544,201.360 349.389,201.800 349.200 C 202.304 348.983,202.378 348.856,202.000 348.856 C 201.670 348.856,201.040 349.011,200.600 349.200 M194.000 350.000 C 193.246 350.487,194.878 350.487,196.400 350.000 C 197.316 349.707,197.283 349.677,196.000 349.646 C 195.230 349.627,194.330 349.787,194.000 350.000 M190.426 350.969 C 190.152 351.299,190.017 352.350,190.105 353.469 L 190.256 355.400 190.328 353.320 C 190.380 351.814,190.593 351.127,191.100 350.832 C 191.485 350.608,191.597 350.419,191.349 350.412 C 191.101 350.405,190.685 350.656,190.426 350.969 M302.000 350.694 C 302.330 350.820,303.365 351.250,304.300 351.648 C 305.235 352.046,306.000 352.282,306.000 352.172 C 306.000 351.893,302.437 350.393,301.867 350.432 C 301.610 350.449,301.670 350.567,302.000 350.694 M309.024 353.787 C 309.451 354.110,309.980 354.375,310.200 354.375 C 310.420 354.375,310.251 354.110,309.824 353.787 C 309.396 353.464,308.867 353.200,308.647 353.200 C 308.427 353.200,308.596 353.464,309.024 353.787 M319.616 353.876 C 319.607 354.358,319.780 354.864,320.000 355.000 C 320.220 355.136,320.400 355.665,320.400 356.175 C 320.400 356.685,320.715 357.340,321.100 357.632 C 321.696 358.082,321.725 358.078,321.300 357.601 C 321.025 357.292,320.800 356.737,320.800 356.366 C 320.800 355.256,319.635 352.807,319.616 353.876 M317.024 357.787 C 317.451 358.110,317.980 358.375,318.200 358.375 C 318.420 358.375,318.251 358.110,317.824 357.787 C 317.396 357.464,316.867 357.200,316.647 357.200 C 316.427 357.200,316.596 357.464,317.024 357.787 M321.750 359.300 C 322.009 360.105,321.578 360.218,320.887 359.527 C 320.626 359.266,320.326 359.141,320.219 359.248 C 320.112 359.355,320.559 359.758,321.212 360.144 C 322.471 360.887,322.836 360.423,321.956 359.200 C 321.592 358.694,321.560 358.709,321.750 359.300 M192.398 359.848 C 192.900 360.653,194.374 361.789,194.577 361.528 C 194.631 361.457,194.046 360.863,193.276 360.207 C 192.257 359.338,192.018 359.240,192.398 359.848 M321.656 361.704 C 321.489 361.871,293.345 361.961,259.114 361.904 C 224.883 361.847,196.960 361.935,197.062 362.100 C 197.282 362.456,306.989 362.399,341.400 362.025 L 365.400 361.764 343.680 361.582 C 331.734 361.482,321.823 361.537,321.656 361.704 " stroke="none" fill="#6c7c84" fill-rule="evenodd"></path><path id="path4" d="M302.920 134.800 C 302.920 136.010,302.995 136.505,303.087 135.900 C 303.178 135.295,303.178 134.305,303.087 133.700 C 302.995 133.095,302.920 133.590,302.920 134.800 M259.533 175.996 C 223.747 176.108,194.377 176.290,194.267 176.400 C 193.878 176.788,324.082 176.394,324.748 176.005 C 325.107 175.796,325.220 175.662,325.000 175.708 C 324.780 175.754,295.320 175.884,259.533 175.996 M189.174 179.627 C 188.088 180.741,187.201 181.956,187.202 182.327 C 187.203 182.706,187.721 182.215,188.391 181.200 C 189.044 180.210,190.163 178.995,190.878 178.500 C 191.593 178.005,191.946 177.600,191.663 177.600 C 191.380 177.600,190.260 178.512,189.174 179.627 M333.700 180.700 C 339.805 180.762,349.795 180.762,355.900 180.700 C 362.005 180.638,357.010 180.587,344.800 180.587 C 332.590 180.587,327.595 180.638,333.700 180.700 M186.667 183.467 C 186.520 183.613,186.411 184.108,186.425 184.567 C 186.449 185.333,186.482 185.323,186.834 184.442 C 187.226 183.463,187.144 182.989,186.667 183.467 M294.400 231.200 C 293.930 231.860,293.636 232.400,293.746 232.400 C 293.856 232.400,294.330 231.860,294.800 231.200 C 295.270 230.540,295.564 230.000,295.454 230.000 C 295.344 230.000,294.870 230.540,294.400 231.200 M292.400 234.000 C 291.930 234.660,291.636 235.200,291.746 235.200 C 291.856 235.200,292.330 234.660,292.800 234.000 C 293.270 233.340,293.564 232.800,293.454 232.800 C 293.344 232.800,292.870 233.340,292.400 234.000 M214.900 236.676 C 215.285 236.776,215.915 236.776,216.300 236.676 C 216.685 236.575,216.370 236.493,215.600 236.493 C 214.830 236.493,214.515 236.575,214.900 236.676 M229.041 240.778 C 229.944 241.780,230.979 243.045,231.341 243.589 C 231.704 244.133,232.000 244.363,232.000 244.100 C 232.000 243.837,230.965 242.572,229.700 241.289 C 228.435 240.006,228.139 239.777,229.041 240.778 M232.395 248.318 L 232.590 251.000 232.717 248.642 C 232.786 247.345,232.699 246.138,232.522 245.960 C 232.345 245.782,232.288 246.843,232.395 248.318 M198.784 247.223 C 198.305 247.896,197.979 248.513,198.061 248.594 C 198.143 248.676,198.614 248.126,199.108 247.371 C 200.223 245.671,199.971 245.556,198.784 247.223 M280.400 248.600 C 279.428 249.590,278.723 250.400,278.833 250.400 C 278.943 250.400,279.828 249.590,280.800 248.600 C 281.772 247.610,282.477 246.800,282.367 246.800 C 282.257 246.800,281.372 247.610,280.400 248.600 M221.700 251.076 C 222.085 251.176,222.715 251.176,223.100 251.076 C 223.485 250.975,223.170 250.893,222.400 250.893 C 221.630 250.893,221.315 250.975,221.700 251.076 M217.978 252.700 L 216.600 254.200 218.196 252.800 C 219.073 252.030,219.868 251.355,219.962 251.300 C 220.056 251.245,219.959 251.200,219.745 251.200 C 219.532 251.200,218.737 251.875,217.978 252.700 M274.985 254.100 L 273.000 256.200 275.100 254.215 C 277.051 252.371,277.383 252.000,277.085 252.000 C 277.022 252.000,276.077 252.945,274.985 254.100 M194.120 262.400 C 194.120 263.610,194.195 264.105,194.287 263.500 C 194.378 262.895,194.378 261.905,194.287 261.300 C 194.195 260.695,194.120 261.190,194.120 262.400 M265.400 261.835 L 264.200 262.866 265.500 262.006 C 266.215 261.533,266.800 261.068,266.800 260.973 C 266.800 260.673,266.631 260.778,265.400 261.835 M216.638 265.524 C 217.057 266.252,217.830 267.242,218.356 267.724 C 218.919 268.240,218.695 267.778,217.812 266.600 C 215.923 264.083,215.679 263.859,216.638 265.524 M193.709 267.600 C 193.709 268.590,193.787 268.995,193.882 268.500 C 193.978 268.005,193.978 267.195,193.882 266.700 C 193.787 266.205,193.709 266.610,193.709 267.600 M194.114 272.200 C 194.117 273.300,194.195 273.703,194.287 273.095 C 194.379 272.486,194.377 271.586,194.282 271.095 C 194.187 270.603,194.111 271.100,194.114 272.200 M236.200 272.810 C 235.666 273.047,235.998 273.086,237.200 272.927 C 238.190 272.796,239.075 272.624,239.167 272.544 C 239.514 272.243,236.964 272.472,236.200 272.810 M198.802 286.233 C 198.803 286.435,199.268 287.140,199.835 287.800 L 200.866 289.000 199.963 287.600 C 198.804 285.804,198.800 285.799,198.802 286.233 M253.997 302.011 C 253.490 302.331,253.506 302.389,254.100 302.394 C 254.862 302.401,255.041 303.004,254.400 303.400 C 253.456 303.983,253.955 308.331,255.192 310.301 C 255.848 311.346,256.388 312.061,256.392 311.892 C 256.397 311.723,255.950 310.871,255.400 310.000 C 254.280 308.226,254.009 304.615,254.890 303.205 C 255.493 302.238,254.897 301.441,253.997 302.011 M228.800 304.800 C 229.350 304.976,230.250 305.117,230.800 305.113 C 231.698 305.106,231.678 305.074,230.600 304.800 C 228.908 304.369,227.456 304.369,228.800 304.800 M238.500 305.076 C 238.885 305.176,239.515 305.176,239.900 305.076 C 240.285 304.975,239.970 304.893,239.200 304.893 C 238.430 304.893,238.115 304.975,238.500 305.076 M234.307 305.490 C 235.026 305.579,236.106 305.577,236.707 305.486 C 237.308 305.395,236.720 305.322,235.400 305.324 C 234.080 305.326,233.588 305.401,234.307 305.490 M258.238 313.800 C 258.877 314.349,259.580 314.798,259.800 314.798 C 260.286 314.796,257.950 312.835,257.438 312.814 C 257.239 312.806,257.599 313.250,258.238 313.800 M261.011 315.318 C 262.038 315.993,264.000 316.835,264.000 316.601 C 264.000 316.411,260.811 314.800,260.436 314.800 C 260.318 314.800,260.577 315.033,261.011 315.318 M265.811 317.342 C 266.568 317.862,267.523 318.158,269.900 318.609 C 270.505 318.724,270.100 318.528,269.000 318.173 C 267.900 317.819,266.687 317.365,266.305 317.165 C 265.250 316.611,264.919 316.729,265.811 317.342 M271.767 319.227 C 272.544 319.721,274.104 320.189,277.000 320.796 C 277.880 320.980,279.050 321.249,279.600 321.393 C 280.453 321.617,280.496 321.589,279.889 321.202 C 279.499 320.952,278.329 320.593,277.289 320.403 C 275.368 320.051,273.244 319.515,271.800 319.016 C 271.026 318.749,271.025 318.756,271.767 319.227 M282.600 322.000 C 283.701 322.473,284.092 322.473,283.800 322.000 C 283.664 321.780,283.158 321.613,282.676 321.628 C 281.831 321.655,281.829 321.669,282.600 322.000 M286.000 322.834 C 286.990 323.014,288.430 323.266,289.200 323.394 L 290.600 323.627 289.000 323.020 C 288.120 322.685,286.680 322.433,285.800 322.459 L 284.200 322.507 286.000 322.834 M292.800 324.000 C 293.588 324.509,294.515 324.509,294.200 324.000 C 294.064 323.780,293.558 323.603,293.076 323.606 C 292.364 323.611,292.312 323.685,292.800 324.000 M296.800 324.851 C 298.010 325.060,299.900 325.300,301.000 325.385 L 303.000 325.538 301.000 325.146 C 299.900 324.931,298.010 324.690,296.800 324.612 L 294.600 324.470 296.800 324.851 M308.116 326.679 C 308.510 326.781,309.118 327.578,309.466 328.449 C 309.815 329.320,310.186 329.948,310.291 329.843 C 310.796 329.338,309.008 326.402,308.223 326.446 C 307.525 326.486,307.509 326.521,308.116 326.679 M310.400 330.581 C 310.400 330.796,311.571 333.529,312.507 335.499 C 312.742 335.994,313.007 336.327,313.095 336.238 C 313.183 336.150,313.078 335.745,312.861 335.339 C 312.135 333.977,311.200 331.683,311.200 331.263 C 311.200 331.034,311.020 330.736,310.800 330.600 C 310.580 330.464,310.400 330.455,310.400 330.581 M313.214 337.105 C 313.206 337.383,313.364 337.923,313.564 338.305 C 313.764 338.687,314.210 339.630,314.555 340.400 C 315.062 341.532,315.184 341.628,315.191 340.900 C 315.196 340.405,315.020 340.000,314.800 340.000 C 314.580 340.000,314.394 339.685,314.386 339.300 C 314.369 338.481,313.235 336.357,313.214 337.105 M248.121 341.098 C 250.277 341.171,253.697 341.170,255.721 341.098 C 257.744 341.025,255.980 340.966,251.800 340.967 C 247.620 340.967,245.964 341.026,248.121 341.098 M264.705 341.483 C 265.202 341.579,265.922 341.575,266.305 341.475 C 266.687 341.375,266.280 341.296,265.400 341.301 C 264.520 341.305,264.207 341.387,264.705 341.483 M267.700 341.876 C 268.085 341.976,268.715 341.976,269.100 341.876 C 269.485 341.775,269.170 341.693,268.400 341.693 C 267.630 341.693,267.315 341.775,267.700 341.876 M316.046 343.854 C 316.021 344.104,316.269 344.824,316.598 345.454 C 317.145 346.504,317.195 346.525,317.198 345.700 C 317.199 345.205,317.033 344.800,316.829 344.800 C 316.625 344.800,316.376 344.485,316.276 344.100 C 316.175 343.715,316.072 343.604,316.046 343.854 M371.545 351.200 C 371.405 353.730,371.183 356.340,371.052 357.000 C 370.921 357.660,371.084 357.390,371.415 356.400 C 371.829 355.161,371.983 353.354,371.908 350.600 L 371.800 346.600 371.545 351.200 M318.026 348.705 C 318.012 348.983,318.164 349.523,318.364 349.905 C 318.564 350.287,319.010 351.230,319.355 352.000 C 319.700 352.770,319.986 353.173,319.991 352.895 C 319.996 352.617,319.842 352.077,319.648 351.695 C 319.454 351.313,319.016 350.370,318.674 349.600 C 318.331 348.830,318.040 348.427,318.026 348.705 M197.700 349.876 C 198.085 349.976,198.715 349.976,199.100 349.876 C 199.485 349.775,199.170 349.693,198.400 349.693 C 197.630 349.693,197.315 349.775,197.700 349.876 M192.100 350.676 C 192.485 350.776,193.115 350.776,193.500 350.676 C 193.885 350.575,193.570 350.493,192.800 350.493 C 192.030 350.493,191.715 350.575,192.100 350.676 M190.667 351.067 C 190.300 351.434,190.329 355.509,190.700 355.738 C 190.865 355.840,191.000 354.771,191.000 353.362 C 191.000 351.953,190.985 350.800,190.967 350.800 C 190.948 350.800,190.813 350.920,190.667 351.067 M320.498 355.297 C 321.069 357.022,321.979 359.084,321.991 358.675 C 322.009 358.043,320.699 354.385,320.386 354.191 C 320.211 354.083,320.261 354.581,320.498 355.297 M369.237 359.442 C 368.707 359.969,368.450 360.400,368.667 360.400 C 368.883 360.400,369.483 359.950,370.000 359.400 C 371.196 358.127,370.522 358.164,369.237 359.442 M322.300 360.063 C 322.457 360.663,322.382 360.836,322.053 360.633 C 321.769 360.457,321.624 360.552,321.690 360.870 C 321.781 361.307,310.930 361.435,259.600 361.602 L 197.400 361.804 259.433 361.902 C 293.552 361.956,321.563 361.904,321.680 361.787 C 321.797 361.669,331.682 361.537,343.647 361.493 L 365.400 361.413 344.100 361.303 L 322.800 361.193 322.800 360.197 C 322.800 359.648,322.637 359.200,322.437 359.200 C 322.238 359.200,322.176 359.588,322.300 360.063 " stroke="none" fill="#758594" fill-rule="evenodd"></path></g></svg>