<svg id="SvgjsSvg1032" width="288" height="288" xmlns="http://www.w3.org/2000/svg" version="1.1" xmlns:xlink="http://www.w3.org/1999/xlink" xmlns:svgjs="http://svgjs.com/svgjs"><defs id="SvgjsDefs1033"></defs><g id="SvgjsG1034"><svg xmlns="http://www.w3.org/2000/svg" width="288" height="288" version="1.0" viewBox="0 0 150 150"><g transform="matrix(.1 0 0 -.1 0 150)" fill="#2863ff" class="color000 svgShape"><path d="M370 1431 l0 -68 -65 -5 c-105 -9 -155 -58 -155 -155 l0 -53 -75 0-75 0 0 -40 0 -39 73 -3 72 -3 3 -47 3 -48 -75 0 -76 0 0 -40 0 -40 75 0 75 0
0 -50 0 -50 -75 0 -75 0 0 -40 0 -40 76 0 75 0 -3 -42 -3 -43 -72 -3 -73 -3 0
-39 0 -40 75 0 75 0 0 -45 0 -45 -75 0 -75 0 0 -40 0 -40 75 0 75 0 0 -50 c0
-107 42 -152 150 -160 l65 -5 3 -77 3 -78 39 0 40 0 0 81 0 80 43 -3 42 -3 3
-77 3 -78 39 0 40 0 0 80 0 80 45 0 45 0 0 -80 0 -80 40 0 39 0 3 78 3 77 45
0 45 0 3 -77 3 -78 39 0 40 0 0 80 0 80 45 0 45 0 0 -80 0 -80 40 0 39 0 3 78
3 77 60 5 c33 3 71 11 83 19 31 17 62 85 62 139 l0 42 75 0 75 0 0 40 0 40
-75 0 -75 0 0 50 0 50 75 0 75 0 0 40 0 40 -75 0 -75 0 0 45 0 44 73 3 72 3 3
38 3 37 -75 0 -76 0 0 50 0 50 75 0 75 0 0 40 0 40 -75 0 -75 0 0 50 0 50 76
0 75 0 -3 38 -3 37 -71 3 -71 3 -6 60 c-9 99 -47 137 -147 146 l-60 6 0 68 0
69 -40 0 -40 0 0 -70 0 -70 -45 0 -45 0 0 70 0 70 -40 0 -40 0 0 -70 0 -70
-50 0 -50 0 0 70 0 70 -40 0 -40 0 0 -70 0 -70 -45 0 -45 0 0 70 0 70 -40 0
-40 0 0 -70 0 -70 -45 0 -45 0 0 70 0 70 -40 0 -40 0 0 -69z m704 -250 c34
-38 -8 -86 -54 -61 -25 13 -27 55 -2 69 25 15 37 13 56 -8z m146 0 c5 -11 10
-29 10 -40 0 -19 -6 -21 -65 -21 -65 0 -65 0 -65 28 0 39 17 52 67 52 32 0 45
-5 53 -19z m-98 -93 c5 -32 28 -35 28 -4 0 31 17 35 22 4 5 -32 28 -35 28 -4
0 16 6 26 15 26 10 0 15 -11 15 -35 l0 -35 -65 0 -65 0 0 35 c0 38 17 48 22
13z m108 -69 c0 -5 -7 -12 -15 -14 -48 -15 -50 -18 -21 -24 16 -3 31 -12 34
-18 3 -10 -14 -13 -62 -13 l-66 0 0 33 c0 19 2 36 5 39 10 10 125 7 125 -3z
m-110 -99 c0 -11 7 -20 15 -20 8 0 15 9 15 20 0 11 5 20 10 20 6 0 10 -9 10
-20 0 -11 7 -20 15 -20 8 0 15 9 15 20 0 11 7 20 15 20 10 0 15 -11 15 -35 l0
-35 -52 -1 -53 -1 53 -16 c68 -20 68 -52 -1 -52 -28 0 -10 -17 23 -22 39 -5
30 -31 -15 -44 l-40 -11 37 -7 c29 -5 39 -13 44 -32 10 -39 -12 -55 -70 -52
-48 3 -51 5 -54 33 -3 19 2 33 14 42 17 12 17 13 0 13 -28 0 -12 24 20 31 28
6 26 8 -18 23 -32 10 -20 35 20 42 l37 8 -37 9 c-37 9 -38 10 -38 58 0 27 5
49 10 49 6 0 10 -9 10 -20z m52 -325 c7 -17 19 -25 35 -25 15 0 23 -5 21 -12
-3 -8 -28 -14 -66 -16 l-62 -3 0 34 c0 40 6 47 37 47 15 0 27 -9 35 -25z
m-681 -165 c25 -63 44 -118 42 -122 -2 -5 -17 -8 -33 -8 -23 0 -33 7 -45 30
-13 25 -22 30 -50 30 -28 0 -37 -5 -50 -31 -14 -25 -21 -30 -48 -27 -18 2 -31
8 -30 13 1 6 21 61 45 123 l43 113 40 -3 39 -3 47 -115z m238 94 c25 -32 26
-52 6 -81 -14 -20 -14 -26 3 -60 11 -21 23 -48 26 -60 7 -21 4 -23 -28 -23
-33 0 -38 4 -61 50 -14 28 -32 50 -40 50 -11 0 -15 -12 -15 -50 l0 -50 -35 0
-35 0 0 125 0 125 79 0 c74 0 81 -2 100 -26z m161 -16 l36 -41 34 41 c27 34
40 42 67 42 l33 0 0 -125 0 -125 -35 0 -35 0 0 67 0 67 -34 -33 -33 -32 -32
36 -31 36 0 -71 0 -70 -35 0 -35 0 0 125 0 125 32 0 c26 0 40 -9 68 -42z m328
-77 c9 -5 12 -26 10 -67 l-3 -59 -65 0 -65 0 -3 59 c-4 69 3 76 68 76 25 0 51
-4 58 -9z" fill="#2863ff" class="color000 svgShape"></path><path d="M1133 1174c-7-3-13-12-13-20 0-10 12-14 41-14 33 0 40 3 37 18-3 17-41 26-65 16zM1120 990c0-5 7-10 15-10 8 0 15 5 15 10 0 6-7 10-15 10-8 0-15-4-15-10zM1127 684c-17-17-4-25 36-22 23 2 42 8 42 13 0 12-67 19-78 9zM1120 580c0-5 7-10 15-10 8 0 15 5 15 10 0 6-7 10-15 10-8 0-15-4-15-10zM393 440c-10-27-9-30 8-30 20 0 23 12 11 43-6 15-9 13-19-13zM620 481c0-16 6-21 26-21 33 0 30 33-4 38-17 3-22-2-22-17z" fill="#2863ff" class="color000 svgShape"></path></g></svg></g></svg>