<svg id="SvgjsSvg1026" width="288" height="288" xmlns="http://www.w3.org/2000/svg" version="1.1" xmlns:xlink="http://www.w3.org/1999/xlink" xmlns:svgjs="http://svgjs.com/svgjs"><defs id="SvgjsDefs1027"></defs><g id="SvgjsG1028"><svg xmlns="http://www.w3.org/2000/svg" enable-background="new 0 0 512 512" viewBox="0 0 512 512" width="288" height="288"><path d="M314.019,318.187c-0.38-4.597-4.41-8.013-9.014-7.634c-17.765,1.473-34.15,2.069-48.888,1.802l2.455-40.633
			c0.278-4.605-3.23-8.562-7.834-8.841c-4.599-0.298-8.564,3.229-8.842,7.834l-8.506,140.767h-15.219
			c1.08-1.975,2.529-3.788,4.189-5.866c3.284-4.111,7.372-9.227,8.395-16.781c1.783-13.162-14.921-57.581-20.084-70.882
			c-1.184-3.049-4.038-5.128-7.306-5.316c-35.99-2.078-67.624-21.117-78.959-28.74c3.567-13.936,5.329-29.303,4.884-44.883
			c-0.131-4.612-3.964-8.192-8.588-8.111c-4.611,0.131-8.243,3.977-8.111,8.588c0.452,15.842-1.54,31.294-5.475,44.732
			c-0.203,0.496-0.353,1.005-0.456,1.521c-4.101,13.34-10.143,24.587-17.639,32.077c-3.684,3.681-9.456,8.058-15.962,7.836
			c-17.304-0.51-25.763-22.805-27.786-29.017c2.062-12.728-0.258-22.64-6.923-29.475c-6.153-6.312-14.354-8.192-20.607-8.587
			c-0.024-0.519-0.049-1.037-0.068-1.574l-0.155-4.324c-1.736-48.146-3.107-86.175,21.987-112.115
			c6.789-7.02,27.791-8.125,44.153-6.715c-11.984,13.469-26.304,21.367-26.663,21.563c-4.061,2.181-5.589,7.239-3.411,11.303
			c2.18,4.065,7.243,5.595,11.308,3.418c1.421-0.762,26.058-14.206,40.782-37.768c0.92,10.042,0.47,19.202-2.545,23.879
			c-7.075,10.975-28.482,27.909-36.133,33.507c-3.722,2.723-4.533,7.95-1.81,11.673c1.636,2.236,4.175,3.421,6.749,3.421
			c1.711,0,3.436-0.523,4.923-1.609c1.225-0.897,30.113-22.115,40.314-37.941c5.109-7.928,6.113-19.656,5.408-31.115
			c20.66-14.848,55.039-35.221,70.347-33.714c5.797,0.566,13.34,3.133,23.06,7.854c4.149,2.011,9.147,0.284,11.162-3.866
			c2.016-4.15,0.284-9.148-3.866-11.163c-11.692-5.678-20.823-8.681-28.735-9.452c-21.244-2.074-56.234,19.346-74.416,31.695
			c-1.672-8.727-3.611-15.402-4.132-17.133c-1.159-3.841-4.892-6.323-8.879-5.894c-3.992,0.423-7.118,3.626-7.444,7.627
			c-0.535,6.545-2.501,12.634-5.3,18.209c-0.255-0.063-0.516-0.118-0.781-0.157c-4.978-0.743-49.144-6.766-66.1,10.761
			c-30.04,31.05-28.481,74.277-26.675,124.332l0.155,4.315c0.126,3.529,0.38,6.852,0.734,10.01c0.017,0.323,0.047,0.648,0.101,0.976
			c0.006,0.033,0.016,0.066,0.022,0.099c2.094,17.179,7.634,28.704,16.552,34.293c4.515,2.83,8.997,3.594,12.709,3.603
			c4.796,12.125,17.067,35.057,41.467,35.778c0.307,0.009,0.614,0.013,0.921,0.013c9.557,0,18.992-4.387,27.341-12.731
			c7.333-7.326,13.515-17.416,18.234-29.229c6.112,3.904,14.96,9.049,25.758,13.93l0.703,78.791
			c-11.279,14.18-14.454,23.033-14.793,24.042c-0.858,2.549-0.435,5.355,1.134,7.538c1.569,2.184,4.094,3.478,6.783,3.478h38.177
			c4.298,0,7.894-3.261,8.313-7.539l9.028-92.081c0.934,0.111,1.866,0.229,2.807,0.322c9.178,24.279,17.92,51.991,17.23,57.702
			c-0.384,2.839-2.026,5.007-4.893,8.597c-4.169,5.218-9.878,12.365-9.878,24.646c0,4.614,3.74,8.353,8.353,8.353h33.471
			c4.417,0,8.071-3.44,8.338-7.85l5.515-91.282c2.567,0.051,5.179,0.078,7.84,0.078c13.384,0,27.929-0.646,43.438-1.931
			C310.983,326.821,314.4,322.785,314.019,318.187z M29.251,289.661c-0.695-0.173-1.423-0.466-2.145-0.942
			c-1.678-1.108-4.857-4.279-7.08-12.994c2.378,0.499,4.731,1.428,6.361,3.1C28.869,281.37,29.456,285.529,29.251,289.661z
			 M169.249,411.482h-16.498c1.941-2.887,4.43-6.278,7.591-10.107c1.252-1.517,1.929-3.426,1.911-5.394l-0.669-74.991
			c5.113,1.751,10.489,3.331,16.08,4.646L169.249,411.482z" fill="#2863ff" class="color000 svgShape"></path><path d="M454.737 144.117c-9.903-10.422-20.829-17.186-29.711-21.441-21.196-10.155-67.38-6.031-104.489-2.719-17.487 1.563-35.572 3.175-41.261 2.057-6.874-1.354-19.181-8.39-29.07-14.043-4.003-2.292-9.107-.902-11.397 3.105-2.29 4.005-.9 9.108 3.105 11.397 14.388 8.227 25.259 14.185 34.134 15.933 7.66 1.505 21.741.354 45.973-1.808 33.223-2.968 78.726-7.03 95.786 1.144 9.94 4.762 17.931 10.601 24.316 17.169.487.732 1.093 1.402 1.825 1.971.009.007.035.027.072.057 27.67 30.659 22.402 75.896 15.457 103.47-.48 1.905-.273 3.918.582 5.686l28.637 59.062-20.836 86.324h-24.892c.439-5.31 2.764-12.565 11.409-16.756 3.606-1.749 9.058-4.391 17.694-56.041.747-4.469-2.204-8.72-6.655-9.579-.697-.135-70.007-14.092-91.147-66.653-1.722-4.281-6.589-6.356-10.867-4.632-4.28 1.721-6.354 6.586-4.632 10.867 4.644 11.548 11.572 22.258 20.552 31.919-11.595 2.099-28.656 4.917-48.135 7.267-4.58.552-7.845 4.713-7.293 9.294.512 4.241 4.115 7.354 8.282 7.354.334 0 .672-.02 1.011-.061 9.53-1.151 18.44-2.399 26.443-3.624l13.389 39.947-17.02 30.432c-1.917.694-4.163 1.817-6.414 3.627-4.444 3.578-9.915 10.751-10.741 24.605-.137 2.298.679 4.55 2.258 6.225 1.578 1.676 3.779 2.625 6.08 2.625h49.724c3.573 0 6.75-2.272 7.905-5.653l29.337-85.891c8.058 3.238 15.09 5.432 20.104 6.811-2.895 15.764-6.652 32.145-8.91 37.026-19.302 10.5-20.516 31.269-18.362 41.044.844 3.829 4.237 6.555 8.157 6.555h39.298c3.858 0 7.215-2.643 8.12-6.393l23.081-95.629c.453-1.881.241-3.862-.604-5.603l-28.629-59.048c5.329-22.342 6.758-42.688 4.351-60.887 8.779 15.487 15.404 34.252 14.44 54.922-.214 4.609 3.347 8.518 7.955 8.734.133.006.264.009.395.009 4.434 0 8.129-3.488 8.337-7.963C514.788 194.125 461.083 149.198 454.737 144.117zM390.936 411.59h-33.56c1.688-3.807 3.979-4.631 4.717-4.801 3.063.075 5.209-1.554 6.73-4.275l20.584-36.805c1.149-2.055 1.378-4.5.629-6.733l-13.698-40.868c8.319-1.442 14.692-2.679 18.468-3.439 7.209 5.56 15.254 10.621 24.064 15.129L390.936 411.59zM37.65 197.991c-5.255 0-9.529 4.268-9.529 9.515 0 5.246 4.275 9.514 9.529 9.514s9.529-4.268 9.529-9.514C47.179 202.259 42.905 197.991 37.65 197.991z" fill="#2863ff" class="color000 svgShape"></path></svg></g></svg>