<svg id="SvgjsSvg1012" width="288" height="288" xmlns="http://www.w3.org/2000/svg" version="1.1" xmlns:xlink="http://www.w3.org/1999/xlink" xmlns:svgjs="http://svgjs.com/svgjs"><defs id="SvgjsDefs1013"></defs><g id="SvgjsG1014"><svg xmlns="http://www.w3.org/2000/svg" width="288" height="288" version="1.0" viewBox="0 0 265 634"><g transform="matrix(.1 0 0 -.1 0 634)" fill="#fc5185" class="color000 svgShape"><path d="M1094 6289c-98-9-132-18-147-37-7-9-69-71-138-137l-124-120 125 127c68 70 122 130 119 132-7 8-86-18-154-51-225-107-389-281-484-511-57-139-54-139 96 8l138 135-142-145-142-145-12-90c-53-410 171-816 547-990 402-186 883-72 1156 274 73 92 149 246 179 361 30 115 32 326 5 450l-19 85-296 300-296 300 288-285 288-285-26 60c-61 141-152 260-273 355-88 70-199 133-215 123-5-3-7-1-4 4 4 6-5 14-21 18-15 5-31 10-37 12-130 44-284 64-411 52zm-445-336c-19-21-54-56-79-77-25-22-11-5 30 37 78 81 106 103 49 40zM360 4088l0-273 148-150 147-150-140 138c-78 76-144 135-148 131-4-4-7-387-7-852 0-803 1-844 17-831 17 13 17 13 1-7-21-25-23-96-7-314 52-727 453-1316 1107-1626 132-63 306-119 431-140l103-17 107 104 106 104-100-103-100-104 175 5c192 5 279 21 387 74 45 22 59 34 61 53 2 21-6 31-55 60-232 140-403 439-453 787-5 39-10 289-10 564l-1 493-22 26-22 25 24-20 24-20-7 175c-19 503-125 824-398 1212-195 277-565 567-988 775-136 67-342 153-365 153-13 0-15-39-15-272zm340-613c19-19 32-35 29-35-3 0-20 16-39 35-19 19-32 35-29 35 3 0 20-16 39-35zm777-282l-247-248 388-390 387-390-390 387-390 388-295-293-295-292 293 295 292 295-47 50-48 50 50-47 50-48 245 245c135 135 247 245 250 245 3 0-106-111-243-247zm-577 82c85-85 153-155 150-155-3 0-75 70-160 155-85 85-153 155-150 155 3 0 75-70 160-155zm196-197l29-33-32 29c-31 28-38 36-30 36 2 0 16-15 33-32zm-466-731c0-1-53-54-117-117l-118-115 115 118c107 109 120 122 120 114zm1420-222c19-19 32-35 29-35-3 0-20 16-39 35-19 19-32 35-29 35 3 0 20-16 39-35z" fill="#fc5185" class="color000 svgShape"></path></g></svg></g></svg>