<svg id="SvgjsSvg1046" width="288" height="288" xmlns="http://www.w3.org/2000/svg" version="1.1" xmlns:xlink="http://www.w3.org/1999/xlink" xmlns:svgjs="http://svgjs.com/svgjs"><defs id="SvgjsDefs1047"></defs><g id="SvgjsG1048"><svg xmlns="http://www.w3.org/2000/svg" enable-background="new 0 0 1000 1000" viewBox="0 0 1000 1000" width="288" height="288"><path d="M966.9,5005.3C419,4930.6,30.1,4405.7,110.5,3852c55.6-377.4,314.2-687.7,682-816.1c182-63.2,446.4-65.1,615-3.8c63.2,21.1,128.4,44.1,143.7,49.8c19.2,5.7,262.5-206.9,672.4-584.3l641.8-593.9l-51.7-160.9c-139.8-431-118.8-919.6,59.4-1339.1c65.1-155.2,201.2-367.8,321.8-509.6c205-241.4,576.6-475.1,894.6-567.1l153.3-44.1v-751v-751l-128.4-55.6c-344.8-145.6-609.2-431-735.6-795c-47.9-134.1-53.6-182-53.6-392.7c-1.9-273.9,36.4-434.9,155.2-651.3c90-162.8,341-413.8,503.8-503.8c216.5-118.8,377.4-157.1,651.3-157.1c216.5,1.9,254.8,7.7,404.2,59.4c413.8,145.6,739.5,494.3,852.5,908.1c53.6,199.2,46,523-17.2,718.4c-124.5,377.4-402.3,680.1-758.7,823.8l-107.3,44.1l-5.8,754.8l-3.8,752.9l90,23c304.6,70.9,647.5,268.2,885.1,507.7c404.2,406.1,607.3,977,540.2,1524.9c-13.4,113-26.8,222.2-26.8,241.4c-3.8,28.7,149.4,130.3,699.2,465.5l703.1,429.1l93.9-69c113-80.5,302.7-166.7,434.9-199.2c136-34.5,423.4-28.7,567.1,7.7c509.6,132.2,883.2,586.2,911.9,1109.2c38.3,695.4-498.1,1274-1191.6,1281.6c-229.9,3.8-348.7-23-563.2-124.5c-226-107.3-425.3-306.5-534.5-532.6c-118.8-241.4-145.6-367.8-132.2-626.5l9.6-214.6l-653.3-396.6c-360.2-218.4-660.9-400.4-666.7-402.3c-5.8-3.8-101.6,82.4-210.8,189.7c-229.9,226.1-417.6,344.8-689.7,442.5c-250.9,90-425.3,114.9-729.9,101.5c-446.4-17.2-818-159-1134.1-433c-49.8-44.1-99.6-78.5-107.3-74.7c-9.6,3.8-272,243.3-584.3,532.6c-312.3,289.3-586.2,540.2-605.4,555.6c-32.6,26.8-34.5,34.5-7.7,134.1c36.4,136,36.4,344.8,0,484.7C1965,4750.5,1484.1,5074.3,966.9,5005.3z" transform="matrix(.1 0 0 -.1 0 512)" fill="#2863ff" class="color000 svgShape"></path></svg></g></svg>