<?xml version="1.0" encoding="utf-8"?>
<svg viewBox="554.627 46.784 285.054 286.251" xmlns="http://www.w3.org/2000/svg">
  <g id="SvgjsG1032" transform="matrix(1, 0, 0, 1, 1056.688232, 98.850548)">
    <path fill="#2863ff" d="M -247.359 178.222 C -228.347 154.017 -217.007 123.499 -217.007 90.332 C -217.007 11.688 -280.762 -52.067 -359.407 -52.067 C -376.514 -52.067 -392.916 -49.047 -408.112 -43.517 C -350.301 -13.191 -273.831 85.749 -247.359 178.222 Z" class="color3E5BA9 svgShape"/>
  </g>
  <path fill="#2863ff" d="M 676.631 139.07 C 654.418 115.139 629.541 96.134 603.194 83.529 C 573.427 109.629 554.627 147.934 554.627 190.635 C 554.627 226.539 567.92 259.335 589.846 284.383 C 609.175 226.309 645.514 170.335 676.631 139.07 Z M 702.87 171.359 C 672.042 204.584 641.322 262.744 630.204 316.404 C 650.132 327.013 672.874 333.035 697.026 333.035 C 721.856 333.035 745.198 326.674 765.522 315.501 C 753.807 261.373 731.694 211.8 702.87 171.359 Z" class="color9F1D20 svgShape"/>
</svg>