<svg id="SvgjsSvg1035" width="288" height="288" xmlns="http://www.w3.org/2000/svg" version="1.1" xmlns:xlink="http://www.w3.org/1999/xlink" xmlns:svgjs="http://svgjs.com/svgjs"><defs id="SvgjsDefs1036"></defs><g id="SvgjsG1037"><svg xmlns="http://www.w3.org/2000/svg" enable-background="new 0 0 1000 1000" viewBox="0 0 1000 1000" width="288" height="288"><path d="M206,509l15.3-17.7l8.4,21.8C273,626.1,369.4,704.6,370.4,705.4c31.6,25.3,66,48.3,101.3,69.1c64.4,6.3,118.8,26.1,156.1,39.7c31.6,11.6,68.3,16.3,104.5,16.7c-58.3-45.4-91.9-97.4-93.9-100.7l-7.5-11.6l11.6-7.5c23-14.7,73.3-24,110.2-29.1c-81.7-79.3-181.9-105.7-183-106.2l-4.5-1.2l-2.9-3.7c-1.2-1.6-29.3-37.7-80.7-163.2c-49.1-120.2-154.2-203.1-155.3-204.2l-0.6-0.6c-80.1-69.3-181.7-71.7-182.8-71.7l-5.7,0.4l-4.1-4.3C106.8,99.4,56,82.1,25.1,83.3c-10,0.4-13.9,2.6-14.5,3.5c-1.4,2.2-0.6,9,5.9,20.2c6.7,11.8,16.9,24.9,26.1,36.1c6.1,7.9,11.6,14.5,15.3,20.2c14.5,22.4,17.7,38.3,18.1,39.9l0.2,0.6c6.5,42.8,50.9,126.1,61.7,134.9c17.3,13.7,15.9,34.2,12.2,44.4c-22,67.2-25.1,127.1-8.8,177.9c9,27.9,21.8,47.9,33,61.1C185,536.1,203.7,511.6,206,509z" fill="#2863ff" class="color000 svgShape"></path><path d="M847.8,875.5c-61.3,11.2-152.2,18.9-220-6.1c-56.6-20.8-152.8-55.8-263.9-35.9c-111,20-211.3,53.6-211.3,53.6s144-33.4,199.5-35.9c55.4-2.4,138.8,5.5,202.5,33c84.3,36.7,213.7,47.3,306.8,5.3c93.3-42,128.6-67.2,128.6-67.2S909.3,864.3,847.8,875.5z" fill="#2863ff" class="color000 svgShape"></path></svg></g></svg>