<svg id="SvgjsSvg1026" width="288" height="288" xmlns="http://www.w3.org/2000/svg" version="1.1" xmlns:xlink="http://www.w3.org/1999/xlink" xmlns:svgjs="http://svgjs.com/svgjs"><defs id="SvgjsDefs1027"></defs><g id="SvgjsG1028"><svg xmlns="http://www.w3.org/2000/svg" enable-background="new 0 0 1000 1000" viewBox="0 0 1000 1000" width="288" height="288"><path d="M1599.9,4977C873.6,4816.9,300.7,4250.7,136.1,3526.7C104.5,3384.6,100,3021.5,100,112c0-3187,2.3-3259.1,45.1-3446.3c160.1-672.1,708.2-1222.5,1398.4-1405.2l191.7-49.6h3259.1h3259.1l191.7,51.9c706,187.2,1215.7,697,1402.9,1402.9l51.9,191.7V116.5v3259.1l-51.9,191.7c-187.2,706-717.2,1233.7-1409.7,1398.4c-180.4,42.8-275.2,45.1-3444.1,42.8C2382.5,5008.6,1708.1,5001.8,1599.9,4977z M1965.3,3677.8c33.8-11.3,406-365.4,825.5-782.6l760.1-760.1L2802,1384.1c-415-417.3-782.6-766.9-823.2-784.9c-94.7-40.6-241.3-40.6-318,0c-69.9,36.1-189.5,160.2-227.8,232.3c-33.8,67.7-31.6,218.8,6.8,306.7c18,40.6,241.3,279.7,496.2,534.6l464.6,462.4l-473.6,473.6c-259.4,259.4-482.7,503-496.2,536.8c-31.6,90.2-29.3,232.3,9,304.5c36.1,65.4,155.6,187.2,227.8,225.5C1726.2,3707.2,1884.1,3709.4,1965.3,3677.8z M5941.7,1221.7c47.4-24.8,110.5-76.7,139.8-117.3c45.1-65.4,51.9-101.5,51.9-270.7c0-216.5-27.1-277.4-169.2-372.2c-74.4-51.9-83.4-51.9-823.2-51.9c-742,0-748.8,0-825.5,51.9c-40.6,27.1-99.2,85.7-128.6,128.6c-47.4,69.9-51.9,99.2-45.1,259.4c9,207.5,54.1,297.7,194,372.2c76.7,40.6,135.3,42.8,800.7,45.1C5806.3,1266.8,5858.2,1264.5,5941.7,1221.7z" transform="matrix(.1 0 0 -.1 0 511)" fill="#2863ff" class="color000 svgShape"></path></svg></g></svg>