<svg id="SvgjsSvg1038" width="288" height="288" xmlns="http://www.w3.org/2000/svg" version="1.1" xmlns:xlink="http://www.w3.org/1999/xlink" xmlns:svgjs="http://svgjs.com/svgjs"><defs id="SvgjsDefs1039"></defs><g id="SvgjsG1040"><svg xmlns="http://www.w3.org/2000/svg" enable-background="new 0 0 1000 1000" viewBox="0 0 1000 1000" width="288" height="288"><g transform="matrix(.1 0 0 -.1 0 512)" fill="#2863ff" class="color000 svgShape"><path d="M519.2,4990.7c-189.7-67.1-329.6-208.9-390.9-400.5C99.6,4505.9,97.6,4088.1,101.5,79l5.7-4417.3l47.9-95.8c59.4-122.7,174.4-237.6,297-297L548-4779h4455.6h4455.6l95.8,47.9c122.7,59.4,237.6,174.4,297,297l47.9,95.8V117.3V4573l-47.9,95.8c-59.4,122.6-174.4,237.6-297,297l-95.8,47.9l-4426.9,3.8C1044.3,5021.4,597.8,5019.5,519.2,4990.7z M8683.1,117.3v-3679.5H5003.6H1324.1V117.3v3679.5h3679.5h3679.5V117.3z" fill="#2863ff" class="color000 svgShape"></path><path d="M2359,3151c-191.6-67.1-329.6-207-392.9-402.5c-26.8-80.5-30.7-166.7-24.9-525.1c5.7-412,7.7-433.1,53.7-525.1c59.4-122.6,176.3-237.6,297-297c78.6-38.3,126.5-46,258.7-46c139.9,0,176.3,7.7,260.6,49.8c53.7,28.7,124.6,72.8,155.2,99.6c74.7,63.2,172.5,247.2,187.8,362.2l13.4,90.1H3779h611.3V119.3v-1839.7l-387.1-5.8c-367.9-5.7-394.8-7.6-484.8-53.7c-122.7-59.4-237.6-174.4-297-297c-38.3-78.6-47.9-124.6-47.9-258.7c0-134.2,9.6-180.1,47.9-258.7c59.4-122.7,174.4-237.6,297-297.1l95.8-47.9h1389.4H6393l95.8,47.9c122.7,59.4,237.6,174.4,297,297.1c67.1,138,67.1,379.4,0,517.4c-59.4,122.7-174.4,237.6-297,297c-90.1,46-116.9,47.9-482.9,53.7l-389,5.8V119.3v1837.8h611.3h609.4l11.5-86.2c26.8-193.6,164.8-379.4,348.8-469.5c138-67.1,379.4-67.1,517.4,0c122.7,59.4,237.6,174.4,297,297c47.9,93.9,47.9,103.5,47.9,565.3c0,461.9,0,471.4-47.9,565.3c-59.4,122.6-174.4,237.6-297,297l-95.8,47.9l-2587.1,3.8C2717.4,3181.7,2435.6,3179.7,2359,3151z" fill="#2863ff" class="color000 svgShape"></path></g></svg></g></svg>