<svg id="SvgjsSvg1024" width="288" height="288" xmlns="http://www.w3.org/2000/svg" version="1.1" xmlns:xlink="http://www.w3.org/1999/xlink" xmlns:svgjs="http://svgjs.com/svgjs"><defs id="SvgjsDefs1025"></defs><g id="SvgjsG1026"><svg xmlns="http://www.w3.org/2000/svg" width="288" height="288" viewBox="0 0 240 240"><path d="M 177.207031 198.859375 L 62.792969 198.859375 C 50.558594 198.859375 40.546875 188.847656 40.546875 176.609375 L 40.546875 62.199219 C 40.546875 49.960938 50.558594 39.949219 62.792969 39.949219 L 177.207031 39.949219 C 189.441406 39.949219 199.453125 49.960938 199.453125 62.199219 L 199.453125 176.609375 C 199.453125 188.847656 189.441406 198.859375 177.207031 198.859375 Z M 158.527344 80.238281 L 83.390625 80.238281 L 83.390625 155.375 L 158.527344 155.375 Z M 85.476562 0 L 71.484375 0 L 71.484375 33.640625 L 85.476562 33.640625 Z M 113.546875 0 L 99.550781 0 L 99.550781 33.640625 L 113.546875 33.640625 Z M 141.613281 0 L 127.621094 0 L 127.621094 33.640625 L 141.613281 33.640625 Z M 169.683594 0 L 155.691406 0 L 155.691406 33.640625 L 169.683594 33.640625 Z M 34.238281 154.539062 L 0 154.539062 L 0 168.53125 L 34.238281 168.53125 Z M 34.238281 126.472656 L 0 126.472656 L 0 140.464844 L 34.238281 140.464844 Z M 34.238281 98.402344 L 0 98.402344 L 0 112.394531 L 34.238281 112.394531 Z M 34.238281 70.335938 L 0 70.335938 L 0 84.328125 L 34.238281 84.328125 Z M 240 154.539062 L 205.761719 154.539062 L 205.761719 168.53125 L 240 168.53125 Z M 240 126.472656 L 205.761719 126.472656 L 205.761719 140.464844 L 240 140.464844 Z M 240 98.402344 L 205.761719 98.402344 L 205.761719 112.394531 L 240 112.394531 Z M 240 70.335938 L 205.761719 70.335938 L 205.761719 84.328125 L 240 84.328125 Z M 85.476562 206.359375 L 71.484375 206.359375 L 71.484375 240 L 85.476562 240 Z M 113.546875 206.359375 L 99.550781 206.359375 L 99.550781 240 L 113.546875 240 Z M 141.613281 206.359375 L 127.621094 206.359375 L 127.621094 240 L 141.613281 240 Z M 169.683594 206.359375 L 155.691406 206.359375 L 155.691406 240 L 169.683594 240 Z M 71.039062 60.421875 C 71.039062 54.671875 64.769531 51.054688 59.78125 53.933594 C 54.792969 56.808594 54.792969 64.035156 59.78125 66.914062 C 64.769531 69.789062 71.039062 66.175781 71.039062 60.421875 Z M 71.039062 60.421875 " fill="#2863ff" class="color000 svgShape"></path></svg></g></svg>