<?xml version="1.0" standalone="no"?>
<!DOCTYPE svg PUBLIC "-//W3C//DTD SVG 20010904//EN"
 "http://www.w3.org/TR/2001/REC-SVG-20010904/DTD/svg10.dtd">
<svg version="1.0" xmlns="http://www.w3.org/2000/svg"
 width="425.000000pt" height="444.000000pt" viewBox="0 0 425.000000 444.000000"
 preserveAspectRatio="xMidYMid meet">

<g transform="translate(0.000000,444.000000) scale(0.100000,-0.100000)"
fill="#000000" stroke="none">
<path d="M177 4393 c-15 -14 -5 -23 26 -22 23 1 26 3 9 6 -12 2 -20 9 -17 14
7 10 -8 12 -18 2z"/>
<path d="M145 4370 c-3 -5 -1 -10 4 -10 6 0 11 5 11 10 0 6 -2 10 -4 10 -3 0
-8 -4 -11 -10z"/>
<path d="M90 4319 c-28 -24 -32 -31 -21 -41 9 -9 12 -9 7 -1 -3 6 8 22 26 37
18 14 30 27 28 29 -3 3 -21 -8 -40 -24z"/>
<path d="M4030 4310 c0 -5 5 -10 11 -10 5 0 7 5 4 10 -3 6 -8 10 -11 10 -2 0
-4 -4 -4 -10z"/>
<path d="M4076 4238 c12 -45 14 -359 14 -1959 l0 -1906 -26 -49 c-30 -57 -91
-118 -143 -141 -33 -16 -184 -17 -1861 -17 l-1825 -1 -47 22 c-26 12 -50 18
-53 13 -3 -4 17 -30 44 -58 36 -37 64 -54 112 -71 l63 -21 1787 0 c1751 0
1788 0 1850 20 83 25 145 83 184 170 20 44 20 68 20 1965 l0 1920 -29 55 c-31
60 -73 110 -92 110 -9 0 -9 -12 2 -52z"/>
<path d="M3885 4260 c-3 -5 -1 -10 4 -10 6 0 11 5 11 10 0 6 -2 10 -4 10 -3 0
-8 -4 -11 -10z"/>
<path d="M34 4235 c-4 -14 -4 -29 0 -32 3 -4 6 3 6 15 0 12 5 22 10 22 6 0 10
5 10 10 0 21 -20 9 -26 -15z"/>
<path d="M3910 4234 c0 -6 7 -19 15 -30 8 -10 14 -14 14 -9 0 6 -6 19 -14 29
-8 11 -15 15 -15 10z"/>
<path d="M171 4174 c0 -11 3 -14 6 -6 3 7 2 16 -1 19 -3 4 -6 -2 -5 -13z"/>
<path d="M3953 4095 c0 -33 2 -45 4 -27 2 18 2 45 0 60 -2 15 -4 0 -4 -33z"/>
<path d="M3427 3880 c-56 -11 -82 -41 -82 -96 0 -39 5 -50 29 -69 16 -13 44
-26 62 -30 118 -22 152 -82 63 -111 -47 -16 -109 12 -109 50 0 18 -38 32 -52
18 -31 -31 38 -121 94 -124 124 -6 178 27 178 110 0 39 -49 92 -83 92 -14 0
-29 5 -32 10 -3 6 -14 10 -23 10 -9 0 -32 9 -50 20 -31 19 -32 21 -17 44 29
44 108 36 135 -14 6 -11 20 -20 30 -20 16 0 20 7 20 33 0 47 -25 66 -110 82
-8 1 -32 -1 -53 -5z"/>
<path d="M484 3845 c4 -19 13 -47 21 -62 8 -15 15 -33 15 -40 0 -7 9 -28 20
-48 11 -20 20 -40 20 -46 0 -6 6 -25 14 -42 7 -18 18 -45 25 -60 9 -23 16 -28
39 -25 22 2 30 11 43 48 9 25 21 58 27 73 7 16 12 34 12 42 0 8 5 17 10 20 6
3 10 13 10 21 0 9 11 40 25 70 33 72 32 84 -4 84 -25 0 -31 -5 -41 -37 -6 -21
-14 -45 -17 -53 -4 -8 -18 -51 -33 -95 -15 -44 -31 -79 -35 -78 -5 1 -18 30
-30 65 -11 35 -23 68 -26 73 -4 6 -9 24 -13 40 -15 64 -29 85 -60 85 -27 0
-28 -2 -22 -35z"/>
<path d="M832 3853 c2 -22 8 -28 28 -28 20 0 26 6 28 28 3 24 0 27 -28 27 -28
0 -31 -3 -28 -27z"/>
<path d="M1660 3831 l0 -50 -52 5 c-57 5 -71 -2 -101 -48 -24 -39 -23 -133 3
-175 23 -38 42 -44 135 -41 l70 3 2 163 c1 89 0 169 -3 177 -4 8 -17 15 -30
15 -22 0 -24 -4 -24 -49z m-20 -123 c37 -40 19 -123 -31 -141 -10 -3 -25 4
-38 17 -28 30 -30 120 -3 135 27 16 50 13 72 -11z"/>
<path d="M2145 3871 c16 -6 21 -20 25 -65 7 -76 24 -76 28 1 2 48 7 63 20 66
9 3 -8 5 -38 5 -36 0 -48 -2 -35 -7z"/>
<path d="M2260 3814 c0 -47 3 -65 12 -62 7 3 15 15 19 29 l6 24 4 -24 c6 -37
28 -37 44 1 l14 33 1 -32 c0 -23 5 -33 15 -33 12 0 15 14 15 65 0 57 -2 65
-19 65 -10 0 -22 -10 -26 -22 -5 -13 -11 -32 -14 -43 -6 -17 -10 -13 -24 23
-26 66 -47 56 -47 -24z"/>
<path d="M2694 3867 c-2 -7 -3 -87 -2 -177 l3 -165 27 -3 27 -3 3 78 3 78 80
0 80 0 -3 -57 c-5 -74 3 -98 33 -98 18 0 25 7 29 28 4 21 2 259 -3 320 -1 6
-12 12 -26 12 -29 0 -36 -21 -33 -90 l3 -45 -80 0 -80 0 -3 68 c-3 64 -4 67
-28 67 -13 0 -27 -6 -30 -13z"/>
<path d="M3050 3700 l0 -180 115 0 c107 0 115 1 115 19 0 28 -13 33 -88 35
l-67 1 -3 153 -3 152 -34 0 -35 0 0 -180z"/>
<path d="M837 3783 c-4 -3 -7 -64 -7 -135 l0 -129 28 3 27 3 3 110 c2 61 0
120 -3 133 -5 21 -33 30 -48 15z"/>
<path d="M944 3748 c4 -23 11 -47 15 -53 5 -5 11 -22 14 -36 4 -14 18 -51 32
-82 21 -46 31 -57 50 -57 24 0 28 8 60 105 8 22 23 65 34 95 21 56 17 75 -15
68 -12 -2 -26 -28 -45 -82 -16 -43 -30 -80 -32 -82 -5 -5 -21 29 -42 91 -22
62 -32 75 -58 75 -17 0 -19 -4 -13 -42z"/>
<path d="M1243 3764 c-35 -27 -43 -61 -17 -71 9 -3 24 -1 33 5 35 26 61 34 85
28 56 -14 15 -46 -59 -46 -34 0 -85 -54 -85 -90 0 -57 26 -70 140 -68 83 1
100 3 96 15 -4 8 -6 56 -6 107 0 85 -2 95 -25 120 -34 37 -115 37 -162 0z
m127 -147 c0 -16 -29 -44 -50 -48 -24 -5 -60 11 -60 26 0 15 46 32 88 34 12 1
22 -5 22 -12z"/>
<path d="M1811 3760 c-51 -52 -54 -160 -5 -213 22 -23 33 -27 84 -27 50 0 63
4 87 26 26 24 28 31 28 106 0 79 0 80 -35 109 -50 42 -116 41 -159 -1z m131
-53 c14 -22 9 -105 -8 -121 -20 -20 -53 -20 -82 0 -17 12 -22 25 -22 62 0 50
6 65 30 75 21 9 73 -1 82 -16z"/>
<path d="M1667 2140 c-9 -11 -13 -20 -9 -20 10 1 42 26 42 34 0 12 -16 6 -33
-14z"/>
<path d="M1620 2090 c0 -5 5 -10 10 -10 6 0 10 5 10 10 0 6 -4 10 -10 10 -5 0
-10 -4 -10 -10z"/>
<path d="M1505 1992 c-5 -4 -16 -15 -23 -24 -12 -14 -11 -16 8 -11 11 3 18 8
15 11 -2 3 0 11 6 19 13 14 10 17 -6 5z"/>
<path d="M1425 1920 c-26 -29 -15 -32 13 -4 12 13 19 24 14 24 -5 0 -17 -9
-27 -20z"/>
<path d="M1370 1865 c-17 -10 -20 -14 -9 -15 9 0 22 7 29 15 15 18 12 18 -20
0z"/>
<path d="M1231 1741 c-22 -19 -22 -20 -2 -18 11 1 23 8 26 16 9 22 0 23 -24 2z"/>
<path d="M1694 1560 c0 -91 2 -128 3 -82 2 45 2 119 0 165 -1 45 -3 8 -3 -83z"/>
<path d="M1185 1700 c-3 -5 -1 -10 4 -10 6 0 11 5 11 10 0 6 -2 10 -4 10 -3 0
-8 -4 -11 -10z"/>
<path d="M153 1605 c0 -22 2 -30 4 -17 2 12 2 30 0 40 -3 9 -5 -1 -4 -23z"/>
<path d="M1060 1590 c0 -5 4 -10 9 -10 6 0 13 5 16 10 3 6 -1 10 -9 10 -9 0
-16 -4 -16 -10z"/>
<path d="M985 1520 c-16 -18 -16 -20 -2 -20 9 0 21 9 27 20 6 11 7 20 2 20 -5
0 -17 -9 -27 -20z"/>
<path d="M955 1480 c-3 -6 1 -7 9 -4 18 7 21 14 7 14 -6 0 -13 -4 -16 -10z"/>
<path d="M1692 1205 c0 -16 2 -22 5 -12 2 9 2 23 0 30 -3 6 -5 -1 -5 -18z"/>
<path d="M1685 1150 c-3 -5 -2 -10 4 -10 5 0 13 5 16 10 3 6 2 10 -4 10 -5 0
-13 -4 -16 -10z"/>
<path d="M1640 1109 c0 -5 5 -7 10 -4 6 3 10 8 10 11 0 2 -4 4 -10 4 -5 0 -10
-5 -10 -11z"/>
<path d="M1585 1060 c-3 -5 -1 -10 4 -10 6 0 11 5 11 10 0 6 -2 10 -4 10 -3 0
-8 -4 -11 -10z"/>
<path d="M1555 1030 c-3 -5 -1 -10 4 -10 6 0 11 5 11 10 0 6 -2 10 -4 10 -3 0
-8 -4 -11 -10z"/>
<path d="M1497 983 c-4 -3 -7 -11 -7 -17 0 -6 5 -5 12 2 6 6 9 14 7 17 -3 3
-9 2 -12 -2z"/>
<path d="M1460 950 c0 -5 5 -10 10 -10 6 0 10 5 10 10 0 6 -4 10 -10 10 -5 0
-10 -4 -10 -10z"/>
<path d="M1375 870 c-3 -5 -1 -10 4 -10 6 0 11 5 11 10 0 6 -2 10 -4 10 -3 0
-8 -4 -11 -10z"/>
<path d="M1275 770 c-3 -5 -1 -10 4 -10 6 0 11 5 11 10 0 6 -2 10 -4 10 -3 0
-8 -4 -11 -10z"/>
<path d="M1234 745 c-17 -13 -17 -14 -2 -15 9 0 20 5 23 11 11 17 0 20 -21 4z"/>
<path d="M1157 673 c-4 -3 -7 -11 -7 -17 0 -6 5 -5 12 2 6 6 9 14 7 17 -3 3
-9 2 -12 -2z"/>
<path d="M1060 579 c0 -5 5 -7 10 -4 6 3 10 8 10 11 0 2 -4 4 -10 4 -5 0 -10
-5 -10 -11z"/>
<path d="M1030 554 c0 -8 5 -12 10 -9 6 3 10 10 10 16 0 5 -4 9 -10 9 -5 0
-10 -7 -10 -16z"/>
<path d="M998 523 c7 -3 16 -2 19 1 4 3 -2 6 -13 5 -11 0 -14 -3 -6 -6z"/>
<path d="M930 468 c0 -17 3 -19 9 -9 5 7 15 17 22 22 10 6 8 9 -8 9 -17 0 -23
-6 -23 -22z"/>
<path d="M170 381 c0 -5 7 -15 17 -22 15 -13 15 -12 4 9 -12 23 -21 28 -21 13z"/>
<path d="M32 360 c0 -14 2 -19 5 -12 2 6 2 18 0 25 -3 6 -5 1 -5 -13z"/>
<path d="M3884 334 c-18 -14 -18 -14 6 -3 31 14 36 19 24 19 -6 0 -19 -7 -30
-16z"/>
<path d="M372 303 c32 -2 84 -2 115 0 32 2 6 3 -57 3 -63 0 -89 -1 -58 -3z"/>
<path d="M3612 303 c37 -2 100 -2 140 0 40 1 10 3 -67 3 -77 0 -110 -1 -73 -3z"/>
<path d="M3945 240 c-3 -5 -1 -10 4 -10 6 0 11 5 11 10 0 6 -2 10 -4 10 -3 0
-8 -4 -11 -10z"/>
</g>
</svg>
